<svg width="390" height="216" viewBox="0 0 390 216" fill="none" xmlns="http://www.w3.org/2000/svg">
<mask id="path-1-inside-1_61_240" fill="white">
<path d="M14 40H115V78H14V40Z"/>
</mask>
<path d="M14 40V41H115V40V39H14V40ZM115 78V77H14V78V79H115V78Z" fill="#070707" mask="url(#path-1-inside-1_61_240)"/>
<path d="M41.6168 56V64H40.2248V57.328H36.0808V64H34.6888V56H41.6168ZM49.7197 56V64H48.3437V61.12H47.1757L44.9357 64H43.2397L45.5757 61.04C44.3917 60.752 43.5597 59.792 43.5597 58.576C43.5597 57.12 44.7277 56 46.3117 56H49.7197ZM46.3597 59.872H48.3437V57.296H46.3597C45.5917 57.296 44.9357 57.776 44.9357 58.592C44.9357 59.392 45.5917 59.872 46.3597 59.872ZM57.7814 56V57.344H55.0614V64H53.6694V57.344H50.9334V56H57.7814ZM64.5373 56H65.9293V64H64.5373V60.656H60.3933V64H59.0013V56H60.3933V59.328H64.5373V56ZM73.8562 56H74.9762V64H73.6002V58.384L69.1682 64H68.0482V56H69.4242V61.616L73.8562 56ZM83.8151 62.672H85.1271V66.144H83.7511V64H77.0951V56H78.4871V62.672H82.4231V56H83.8151V62.672ZM92.9222 56H94.3142V64H92.9222V62.624C92.2822 63.6 91.2582 64.208 89.8982 64.208C87.6742 64.208 85.8502 62.368 85.8502 60C85.8502 57.632 87.6742 55.792 89.8982 55.792C91.2582 55.792 92.2822 56.4 92.9222 57.376V56ZM90.0742 62.864C91.6902 62.864 92.9222 61.632 92.9222 60C92.9222 58.368 91.6902 57.136 90.0742 57.136C88.4742 57.136 87.2422 58.368 87.2422 60C87.2422 61.632 88.4742 62.864 90.0742 62.864Z" fill="#070707"/>
<rect x="115.5" y="40.5" width="159" height="37" stroke="#070707"/>
<path d="M166.175 65.234C163.457 65.234 161.423 63.164 161.423 60.5C161.423 57.818 163.457 55.766 166.175 55.766C167.939 55.766 169.469 56.684 170.189 58.088L168.515 59.06C168.119 58.214 167.237 57.674 166.157 57.674C164.573 57.674 163.367 58.88 163.367 60.5C163.367 62.12 164.573 63.326 166.157 63.326C167.237 63.326 168.119 62.768 168.551 61.94L170.225 62.894C169.469 64.316 167.939 65.234 166.175 65.234ZM177.397 56H179.467L176.011 65.288C175.165 67.574 173.599 68.726 171.619 68.6V66.782C172.879 66.854 173.563 66.26 174.013 65.054L174.067 64.928L170.287 56H172.357L175.093 62.552L177.397 56ZM184.507 65.234C181.735 65.234 179.827 63.236 179.827 60.464C179.827 57.566 180.385 56.072 183.283 54.65C185.173 53.732 186.343 53.48 186.703 52.076L188.287 52.994C187.963 54.65 186.469 55.226 184.633 55.982C182.995 56.63 182.419 57.224 182.131 58.178C182.905 57.296 184.075 56.954 185.065 56.954C187.081 56.954 189.007 58.52 189.007 61.022C189.007 63.452 187.189 65.234 184.507 65.234ZM184.489 63.416C186.001 63.416 187.063 62.408 187.063 61.022C187.063 59.618 186.037 58.592 184.507 58.592C183.265 58.592 181.879 59.42 181.879 60.932C181.879 62.39 183.031 63.416 184.489 63.416ZM194.72 65.234C191.948 65.234 190.04 63.236 190.04 60.464C190.04 57.566 190.598 56.072 193.496 54.65C195.386 53.732 196.556 53.48 196.916 52.076L198.5 52.994C198.176 54.65 196.682 55.226 194.846 55.982C193.208 56.63 192.632 57.224 192.344 58.178C193.118 57.296 194.288 56.954 195.278 56.954C197.294 56.954 199.22 58.52 199.22 61.022C199.22 63.452 197.402 65.234 194.72 65.234ZM194.702 63.416C196.214 63.416 197.276 62.408 197.276 61.022C197.276 59.618 196.25 58.592 194.72 58.592C193.478 58.592 192.092 59.42 192.092 60.932C192.092 62.39 193.244 63.416 194.702 63.416ZM205.005 65.234C202.377 65.234 200.253 63.164 200.253 60.5C200.253 57.818 202.377 55.766 205.005 55.766C207.651 55.766 209.757 57.818 209.757 60.5C209.757 63.164 207.651 65.234 205.005 65.234ZM205.005 63.344C206.589 63.344 207.813 62.138 207.813 60.5C207.813 58.862 206.589 57.656 205.005 57.656C203.421 57.656 202.197 58.862 202.197 60.5C202.197 62.138 203.421 63.344 205.005 63.344ZM218.039 56V57.872H215.105V65H213.161V57.872H210.209V56H218.039ZM226.131 56H228.075V65H226.131V63.704C225.447 64.658 224.385 65.234 222.981 65.234C220.533 65.234 218.499 63.164 218.499 60.5C218.499 57.818 220.533 55.766 222.981 55.766C224.385 55.766 225.447 56.342 226.131 57.278V56ZM223.287 63.38C224.907 63.38 226.131 62.174 226.131 60.5C226.131 58.826 224.907 57.62 223.287 57.62C221.667 57.62 220.443 58.826 220.443 60.5C220.443 62.174 221.667 63.38 223.287 63.38Z" fill="#070707"/>
<mask id="path-6-inside-2_61_240" fill="white">
<path d="M275 40H376V78H275V40Z"/>
</mask>
<path d="M275 40V41H376V40V39H275V40ZM376 78V77H275V78V79H376V78Z" fill="#070707" mask="url(#path-6-inside-2_61_240)"/>
<path d="M291.931 59.888C292.731 60.224 293.163 60.88 293.163 61.744C293.163 63.008 292.315 64 290.603 64H286.603V56H290.283C291.931 56 292.795 56.928 292.795 58.176C292.795 58.928 292.507 59.52 291.931 59.888ZM290.219 57.248H287.963V59.344H290.219C291.019 59.344 291.435 58.976 291.435 58.272C291.435 57.632 291.019 57.248 290.219 57.248ZM290.523 62.736C291.355 62.736 291.787 62.32 291.787 61.632C291.787 60.976 291.339 60.576 290.523 60.576H287.963V62.736H290.523ZM298.425 64.208C296.089 64.208 294.217 62.368 294.217 60C294.217 57.632 296.089 55.792 298.425 55.792C300.761 55.792 302.649 57.632 302.649 60C302.649 62.368 300.761 64.208 298.425 64.208ZM298.425 62.848C300.025 62.848 301.257 61.616 301.257 60C301.257 58.384 300.025 57.152 298.425 57.152C296.841 57.152 295.609 58.384 295.609 60C295.609 61.616 296.841 62.848 298.425 62.848ZM308.05 64.208C305.634 64.208 303.842 62.368 303.842 60C303.842 57.632 305.634 55.792 308.05 55.792C309.634 55.792 310.978 56.624 311.586 57.888L310.418 58.56C310.018 57.712 309.122 57.152 308.05 57.152C306.45 57.152 305.234 58.384 305.234 60C305.234 61.6 306.45 62.832 308.05 62.832C309.138 62.832 310.018 62.272 310.466 61.44L311.65 62.128C310.978 63.376 309.618 64.208 308.05 64.208ZM319.808 64H318.08L314.432 60.208V64H313.04V56H314.432V59.536L317.888 56H319.68L315.856 59.872L319.808 64ZM325.519 55.792C327.743 55.792 329.567 57.632 329.567 60C329.567 62.368 327.743 64.208 325.519 64.208C324.159 64.208 323.135 63.6 322.495 62.624V67.2H321.103V56H322.495V57.376C323.135 56.4 324.159 55.792 325.519 55.792ZM325.343 62.864C326.943 62.864 328.175 61.632 328.175 60C328.175 58.368 326.943 57.136 325.343 57.136C323.727 57.136 322.495 58.368 322.495 60C322.495 61.632 323.727 62.864 325.343 62.864ZM332.204 60.64C332.476 62.08 333.612 62.896 335.1 62.896C336.204 62.896 337.004 62.384 337.404 61.728L338.588 62.4C337.884 63.488 336.668 64.208 335.068 64.208C332.492 64.208 330.78 62.4 330.78 60C330.78 57.632 332.476 55.792 334.972 55.792C337.388 55.792 338.956 57.776 338.956 60.016C338.956 60.224 338.94 60.432 338.908 60.64H332.204ZM334.972 57.104C333.468 57.104 332.428 58.032 332.204 59.424H337.548C337.308 57.84 336.172 57.104 334.972 57.104ZM346.092 56H347.484V64H346.092V60.656H341.948V64H340.556V56H341.948V59.328H346.092V56ZM352.979 58.88C354.563 58.88 355.763 59.92 355.763 61.44C355.763 62.96 354.563 64 352.979 64H349.603V56H350.995V58.88H352.979ZM352.979 62.704C353.747 62.704 354.387 62.224 354.387 61.44C354.387 60.656 353.747 60.16 352.979 60.16H350.995V62.704H352.979ZM358.157 60.64C358.429 62.08 359.565 62.896 361.053 62.896C362.157 62.896 362.957 62.384 363.357 61.728L364.541 62.4C363.837 63.488 362.621 64.208 361.021 64.208C358.445 64.208 356.733 62.4 356.733 60C356.733 57.632 358.429 55.792 360.925 55.792C363.341 55.792 364.909 57.776 364.909 60.016C364.909 60.224 364.893 60.432 364.861 60.64H358.157ZM360.925 57.104C359.421 57.104 358.381 58.032 358.157 59.424H363.501C363.261 57.84 362.125 57.104 360.925 57.104Z" fill="#070707"/>
<mask id="path-9-inside-3_61_240" fill="white">
<path d="M14 78H115V176H14V78Z"/>
</mask>
<path d="M115 176V175H14V176V177H115V176Z" fill="#070707" mask="url(#path-9-inside-3_61_240)"/>
<path d="M50.8141 139.8C51.1607 139.32 51.4541 138.72 51.6941 138C51.9341 137.28 52.0541 136.547 52.0541 135.8V118.04C52.0541 116.467 51.4541 115.68 50.2541 115.68C49.8541 115.68 49.3207 115.813 48.6541 116.08V115.4L55.3741 112H55.8541V135.8C55.8541 136.547 55.9741 137.28 56.2141 138C56.4541 138.72 56.7474 139.32 57.0941 139.8V140H50.8141V139.8ZM71.9397 139.8C72.2864 139.32 72.5797 138.72 72.8197 138C73.0597 137.28 73.1797 136.547 73.1797 135.8V132.76H61.4997V131.48L75.6597 112H76.9797V130.12H81.5397L80.5797 132.76H76.9797V135.8C76.9797 136.547 77.0997 137.28 77.3397 138C77.5797 138.72 77.873 139.32 78.2197 139.8V140H71.9397V139.8ZM73.1797 116.92L63.6197 130.12H73.1797V116.92Z" fill="#070707"/>
<mask id="path-12-inside-4_61_240" fill="white">
<path d="M115 78H275V176H115V78Z"/>
</mask>
<path d="M275 176V177H276V176H275ZM115 176H114V177H115V176ZM275 78H274V176H275H276V78H275ZM275 176V175H115V176V177H275V176ZM115 176H116V78H115H114V176H115Z" fill="#070707" mask="url(#path-12-inside-4_61_240)"/>
<path d="M177.128 142.75C177.628 142.05 178.028 141.217 178.328 140.25C178.628 139.25 178.778 138.2 178.778 137.1V116.55C178.778 115.45 178.561 114.633 178.128 114.1C177.694 113.567 177.111 113.3 176.378 113.3C175.744 113.3 175.028 113.483 174.228 113.85V112.9L184.078 108H184.778V137.1C184.778 138.2 184.928 139.25 185.228 140.25C185.528 141.217 185.928 142.05 186.428 142.75V143H177.128V142.75ZM202.521 143.6C200.021 143.6 197.904 143.083 196.171 142.05C194.471 140.983 193.237 139.617 192.471 137.95H192.971C193.804 138.95 194.921 139.767 196.321 140.4C197.754 141 199.271 141.3 200.871 141.3C203.371 141.3 205.337 140.583 206.771 139.15C208.204 137.717 208.921 135.867 208.921 133.6C208.921 130.6 207.704 128.15 205.271 126.25C202.837 124.35 199.371 123.117 194.871 122.55L200.871 108H214.821L212.871 112.9H200.221L198.171 117.65C201.037 118.017 203.737 118.8 206.271 120C208.837 121.167 210.921 122.783 212.521 124.85C214.154 126.883 214.971 129.317 214.971 132.15C214.971 134.417 214.454 136.417 213.421 138.15C212.387 139.883 210.921 141.233 209.021 142.2C207.154 143.133 204.987 143.6 202.521 143.6Z" fill="#070707"/>
<mask id="path-15-inside-5_61_240" fill="white">
<path d="M275 78H376V176H275V78Z"/>
</mask>
<path d="M376 176V175H275V176V177H376V176Z" fill="#070707" mask="url(#path-15-inside-5_61_240)"/>
<path d="M311.189 139.8C311.536 139.32 311.829 138.72 312.069 138C312.309 137.28 312.429 136.547 312.429 135.8V118.04C312.429 116.467 311.829 115.68 310.629 115.68C310.229 115.68 309.696 115.813 309.029 116.08V115.4L315.749 112H316.229V135.8C316.229 136.547 316.349 137.28 316.589 138C316.829 138.72 317.122 139.32 317.469 139.8V140H311.189V139.8ZM333.035 140.44C331.355 140.44 329.808 140.027 328.395 139.2C327.008 138.373 325.888 137.12 325.035 135.44C324.181 133.76 323.755 131.68 323.755 129.2C323.755 126.24 324.355 123.507 325.555 121C326.781 118.493 328.568 116.427 330.915 114.8C333.261 113.173 336.075 112.16 339.355 111.76V112.16C335.461 113.36 332.581 115.36 330.715 118.16C328.875 120.96 327.955 124.76 327.955 129.56C327.955 132.787 328.381 135.267 329.235 137C330.115 138.733 331.381 139.6 333.035 139.6C334.528 139.6 335.755 138.907 336.715 137.52C337.701 136.107 338.195 134.133 338.195 131.6C338.195 129.12 337.715 127.173 336.755 125.76C335.795 124.32 334.568 123.6 333.075 123.6C331.768 123.6 330.648 123.893 329.715 124.48V124.04C330.755 123.187 332.128 122.76 333.835 122.76C335.435 122.76 336.888 123.107 338.195 123.8C339.501 124.493 340.528 125.507 341.275 126.84C342.021 128.173 342.395 129.76 342.395 131.6C342.395 133.413 341.968 134.987 341.115 136.32C340.288 137.653 339.168 138.68 337.755 139.4C336.341 140.093 334.768 140.44 333.035 140.44Z" fill="#070707"/>
<g filter="url(#filter0_g_61_240)">
<path d="M173.27 195.302C171.476 193.033 169.394 189.867 167.908 187.398C167.442 186.625 167.897 186.867 167.585 186.327C166.976 185.272 166.243 184.398 165.666 183.34C165.476 182.989 166.066 183.19 165.86 182.826C164.727 180.833 163.463 179.084 162.275 177.095C156.443 167.305 150.895 157.583 145.716 147.282C144.005 143.883 142.255 139.598 140.456 136.108C140.244 135.698 140.06 136.088 139.998 136.02C139.038 134.952 139.838 135.083 139.546 134.239C138.379 130.865 136.84 127.24 135.446 124.118C134.852 122.784 134.781 124.384 134.585 122.888C134.571 122.785 135.033 122.996 134.923 122.614C134.674 121.757 133.991 120.147 133.781 119.496C133.361 118.203 133.279 117.984 132.86 116.79C132.28 115.122 131.788 113.086 131.169 111.328C131.033 110.942 130.844 111.565 130.597 110.959C130.346 110.347 129.913 108.722 129.843 108.125C129.775 107.545 130.114 107.71 130.15 107.595C130.466 106.674 129.256 104.911 129.189 104.677C128.932 103.829 128.713 102.956 128.543 102.145C127.838 98.8156 127.341 95.6609 126.515 92.3213C125.735 89.1855 124.757 85.8398 124.12 82.7868C123.366 79.148 122.99 75.9962 122.557 72.3717C122.514 71.9885 122.139 72.4835 122.085 72.0133C121.527 67.0218 121.585 61.825 123.014 56.8542C123.159 56.3595 123.371 57.0875 123.538 56.6031C124.49 53.5505 127.146 49.5656 126.851 47.1494C128.032 45.3533 129.774 43.3229 131.337 42.2209C132.352 41.5077 131.78 42.6268 132.748 41.4667C132.971 41.2084 132.409 41.2412 132.758 40.8803C134.234 39.36 136.183 38.047 137.855 36.7702C138.19 36.5131 137.925 36.3046 137.996 36.192C138.613 35.2492 140.53 35.0585 140.849 34.9578C143.518 34.0126 145.286 33.0644 147.684 32.1463C148.236 31.9392 147.43 31.7868 147.96 31.5728C148.691 31.2816 149.45 31.0012 150.234 30.7351C152.478 29.9742 154.702 29.5083 156.949 29.3649C157.613 29.3283 157.052 29.7625 157.368 29.7651C158.74 29.7921 159.064 29.0828 160.423 29.2075C160.708 29.2364 160.548 29.5495 160.6 29.5835C161.386 30.1192 162.111 29.3968 162.334 29.3937C165.041 29.358 166.583 30.4775 169.001 31.1177C169.295 31.2 168.762 30.6053 169.587 30.8652C175.111 32.6158 180.028 36.4845 183.548 40.7081C184.1 41.3678 183.464 41.1223 183.474 41.1871C183.648 42.2113 184.589 42.1269 184.793 42.3161C186.398 43.8376 187.12 45.8518 188.726 46.5268C193.869 54.2747 198.223 62.4821 200.624 71.3002C200.655 71.4109 200.23 71.349 200.292 71.5687C201.036 74.2423 201.405 73.5535 202.675 75.0494C203.002 75.4501 202.619 77.0595 202.593 77.1893C202.507 77.684 201.832 77.4178 201.834 77.5731C201.866 78.8417 203.596 78.1478 204.085 79.7442C204.098 79.7948 203.707 79.6855 203.715 79.8286C203.736 80.2611 203.998 80.6649 204.01 81.1202C204.034 82.1722 203.247 82.6821 204.17 84.0453C204.286 84.2146 205.225 83.6393 205.569 85.1154C205.725 85.7568 206.374 88.2501 206.491 89.0723C206.591 89.7971 206.147 89.3871 206.145 89.4427C206.131 89.8735 206.139 90.3435 206.092 90.546C206.051 90.7788 205.983 90.8677 205.924 91.0259C205.793 91.2913 205.593 91.3532 205.365 91.8622L205.435 92.241L205.718 91.9715C205.727 91.9698 205.736 91.968 205.745 91.9662C206.931 91.7343 205.633 90.7987 205.81 90.3834C205.988 89.9655 207.315 89.2256 207.664 89.082C208.014 88.9348 207.833 89.3945 208.115 89.2338C210.02 88.1424 208.287 88.0191 208.648 87.3577C209.498 85.8076 211.265 85.8397 212.503 84.9756C212.839 84.7421 212.413 84.7453 212.679 84.4971C213.743 83.5191 214.678 83.2505 215.782 82.0132C215.964 81.8079 216.656 80.4337 217.662 80.3663C217.804 80.3582 217.687 80.7933 218.229 80.4984C219.035 80.057 220.482 79.182 221.257 78.5895C221.846 78.14 220.871 78.1758 221.749 77.8136C222.138 77.6557 221.627 78.2924 222.344 77.9789C223.053 77.6642 224.741 76.6939 225.405 76.3376C226.057 75.9815 225.528 75.8493 225.57 75.7993C225.822 75.503 227.031 74.6993 227.153 74.6447C232.942 71.7991 238.908 70.5917 245.126 70.0043C245.62 69.9611 245.271 69.596 245.346 69.5854C247.045 69.3545 245.748 70.422 246.911 70.7379C246.732 69.9634 247.427 70.0794 248.618 70.035C249.191 70.0161 248.894 69.7025 248.947 69.6735C249.827 69.2544 250.395 69.9029 250.531 70.0364C251.048 70.5301 251.712 70.0799 252.053 70.4279C252.387 70.7743 251.471 71.0828 252.576 71.2407C252.933 71.0148 252.208 70.1605 253.088 70.1821C256.49 70.1457 262.17 72.9384 264.328 74.4019C266.572 75.7864 267.266 76.2726 268.423 77.261C270.469 79.119 270.01 78.0668 271.476 79.0261C272.932 80.0381 271.382 80.4226 271.366 80.7984C271.337 81.1664 271.725 81.1336 271.823 81.4525C271.918 81.7696 271.336 81.4625 271.776 81.9874C272.224 82.507 273.858 83.5415 274.244 83.5409C275.063 83.5238 275.01 82.4161 276.044 84.0163C276.101 84.107 275.613 84.0638 275.842 84.3996C277.448 86.7314 279.038 89.1185 280.354 91.6413C280.563 92.0406 280.761 92.439 280.948 92.8365C281.135 93.2394 280.602 93.0843 280.706 93.3195C281.734 95.7496 281.873 94.636 283.182 95.6511C282.159 95.7798 281.995 96.7171 282.75 98.5855C283.184 99.7035 283.497 99.3496 284.047 99.9992C284.214 100.198 284.207 101.111 284.44 101.2C285.207 101.51 285.702 100.489 285.985 102.658C285.995 102.754 285.575 102.55 285.635 102.871C285.973 104.939 286.702 105.055 287.063 107.35C287.354 109.159 286.937 112.407 286.582 114.401C285.513 114.236 285.497 116.098 286.056 117.01C285.755 118.304 285.419 119.671 284.908 120.854C284.732 121.261 284.527 120.883 284.477 120.925C283.698 121.539 284.186 122.293 284.107 122.574C283.21 125.552 281.561 127.44 280.456 130.203C280.418 130.298 280.969 130.851 280.077 131.196C280.017 131.216 280.26 130.231 279.481 131.348C278.676 132.507 276.861 134.279 275.92 135.963C275.706 136.36 275.432 137.645 274.441 138.042C274.308 138.094 274.236 137.847 274.025 137.903C273.341 138.094 273.721 138.818 272.788 138.874C271.869 138.913 270.533 139.638 269.557 141.248C269.525 141.298 269.644 142.039 269.212 142.449C268.527 143.099 267.43 143.965 266.732 144.611C266.389 144.929 266.865 145.004 266.81 145.064C264.572 147.391 262.644 148.596 259.891 150.634C259.4 150.996 258.309 152.517 257.071 152.954C255.742 153.407 255.721 151.111 253.577 153.27C252.706 154.137 252.8 156.983 250.314 157.253C246.928 160.014 243.305 161.678 239.948 164.334C239.795 164.454 239.627 165.338 239.23 165.579C238.646 165.931 238.142 165.885 237.739 166.114C236.013 167.085 234.572 168.277 232.845 169.272C232.189 169.649 232.263 169.235 231.507 169.668C230.753 170.098 230.466 170.755 229.332 171.19C228.474 171.517 227.258 171.241 226.151 171.768C226.528 172.522 225.833 172.907 224.685 173.821C224.464 173.997 224.87 174.102 224.773 174.198C224.381 174.597 223.826 174.634 223.459 175.031C223.369 175.127 223.506 175.38 223.441 175.473C222.89 176.272 221.302 176.424 221.027 176.449C219.983 176.544 219.808 177.069 219.097 177.272C218.391 177.471 219.222 176.769 218.443 177.084C216.836 177.734 214.843 178.877 213.279 179.707C212.665 180.034 213.265 180.146 213.181 180.201C211.961 180.97 210.465 181.306 210.103 182.363C208.273 181.099 209.415 182.948 207.341 183.593C207.177 183.643 206.554 182.915 207.061 182.494C207.568 182.072 208.565 181.876 209.243 181.274C209.405 181.131 210.044 179.799 210.16 179.677C211.079 178.716 211.892 179.862 211.988 179.898C213.044 180.269 213.852 178.76 214.176 178.509C215.599 177.397 216.996 176.852 218.16 175.963C218.92 175.383 218.554 174.54 219.209 174.207C221.463 173.049 222.862 173.721 224.328 171.605C224.644 171.15 223.704 170.541 225.652 170.321C225.777 170.306 227.318 170.24 227.757 169.454C227.813 169.355 227.662 169.105 227.761 169.019C228.422 168.446 229.031 168.355 229.767 167.787C230.497 167.222 231.369 166.504 232.351 166.023C232.938 165.736 233.926 165.767 234.257 165.719C235.199 165.589 235.65 164.57 236.343 164.684C237.044 164.795 236.526 165.954 237.885 165.457C237.529 164.788 237.221 164.064 236.889 163.374C239.596 161.702 242.234 160.28 244.832 158.487C245.148 158.268 244.595 158.15 244.926 157.907C246.29 156.904 247.772 156.232 249.168 155.101C250.241 154.228 251.234 152.978 252.352 152.012C253.599 152.168 255.098 150.67 256.424 149.729C256.878 149.408 256.991 149.612 257.346 149.428C258.673 148.729 257.653 148.562 257.89 148.218C258.866 146.768 260.145 147.963 261.68 146.612C261.766 146.539 262.156 144.987 262.247 144.829C262.874 143.784 262.602 144.947 263.2 144.512C264.291 143.713 265.12 143.26 266.043 142.022C266.329 141.643 266.722 140.473 267.648 140.181C267.771 140.142 267.94 140.404 268.018 140.352C269.4 139.394 268.751 138.675 269.181 137.76C269.61 136.844 271.056 136.235 271.393 136.141C272.29 135.875 271.153 136.727 271.165 136.782C271.265 137.528 271.888 136.701 272.491 136.084C273.281 136.612 274.003 135.683 273.091 135.462C272.991 135.438 272.635 135.985 272.491 136.084C272.29 134.913 272.975 133.934 274.517 133.378C275.238 133.109 275.251 133.887 276.31 132.195C276.78 131.426 276.039 131.344 276.363 130.587C277.084 128.884 278.826 127.248 279.595 125.603C279.882 124.991 279.261 125.405 279.443 124.983C279.92 123.86 280.585 123.073 280.93 121.89C280.959 121.786 280.517 121.886 280.651 121.545C281.634 118.984 282.52 116.726 282.886 113.895C283.081 112.534 282.942 110.072 282.854 108.664C282.775 106.231 282.601 103.069 281.752 101.05C281.202 99.7352 280.953 100.172 280.503 99.7038C279.641 98.8094 279.568 96.6132 279.545 96.2815C279.549 96.2713 280.164 97.3435 280.049 96.6679C280.238 96.1469 279.552 96.2921 279.545 96.2815C279.548 96.0559 278.468 93.8661 278.131 93.4662C277.961 93.2517 277.735 93.561 277.651 93.4466C277.619 93.4017 277.586 93.3568 277.553 93.3119C275.612 90.6489 273.683 88.072 271.658 85.5337C271.625 85.4855 271.978 85.2908 271.896 85.1801C270.744 83.6305 269.522 83.1016 268.174 82.2653C266.841 81.4528 265.945 80.6407 265.607 79.5585C264.607 78.9231 263.361 77.7765 262.592 77.1422C261.831 76.5086 261.342 77.1302 261.265 77.1043C258.721 76.368 257.509 75.4221 254.894 74.6483C253.655 74.2707 251.107 73.959 249.706 73.9633C248.606 73.9521 247.941 73.756 246.919 73.879C246.782 73.8961 246.925 74.2349 246.883 74.2486C245.773 74.6802 246.286 73.8386 246.045 73.6962C245.161 73.1953 244.585 72.9292 243.115 73.356C242.76 73.455 241.961 74.7788 241.377 74.9562C240.609 75.1864 240.813 74.7088 240.019 74.978C239.95 75.0018 240.02 75.2553 239.515 75.3566C237.163 75.8338 234.583 76.5067 232.237 77.5076C231.917 77.6437 232.489 77.8603 232.031 78.0639C229.888 79.0186 227.578 80.1731 225.467 81.171C224.949 81.4141 225.109 80.9805 224.958 80.9674C224.028 80.8956 223.471 82.1437 223.342 82.2436C219.936 84.8359 216.863 86.2656 213.685 89.3755C213.492 89.5597 212.67 91.3618 211.577 91.4011C211.508 91.3994 210.389 91.435 210.204 92.2821C210.192 92.3353 210.816 92.2627 210.143 92.8378C209.649 93.2615 209.049 94.0057 208.3 94.6101L203.035 99.6115L201.744 92.5822C201.75 92.5885 201.75 92.567 201.746 92.5191C201.742 92.4735 201.728 92.3818 201.732 92.3694C201.732 92.3085 201.731 92.2354 201.73 92.1508C201.728 91.9813 201.722 91.7544 201.75 91.6263C201.799 91.2511 202.294 90.1645 201.455 89.1563C201.405 89.1081 199.702 87.6636 200.403 86.82C200.524 86.7019 201.449 86.4704 200.63 85.3151C200.469 85.0842 200.394 85.6077 200.079 84.964C199.577 83.9157 199.446 82.5444 198.649 81.3776C198.513 81.1842 197.614 80.4506 197.833 79.5268C197.869 79.3859 198.239 79.5047 198.15 79.1072C197.718 77.1972 196.843 75.2873 196.357 73.3177C196.187 72.6303 196.793 72.7929 196.662 72.0483C196.531 71.298 196.11 69.8414 195.604 69.2114C195.097 68.5754 194.658 69.6688 194.159 68.6144C191.991 64.0664 190.296 59.4004 187.837 55.0849C187.472 54.4488 187.534 55.1177 186.972 54.2002C184.936 50.7509 180.652 45.6096 178.657 42.9408C177.054 40.7361 179.781 42.7813 178.405 41.2202C177.725 40.4647 176.292 40.5188 176.093 40.3997C174.128 39.2262 173.054 38.0261 171.215 37.1983C170.837 37.0336 171.019 37.5592 170.703 37.4192C169.625 36.9506 168.561 36.3254 167.491 36.0086C167.012 35.87 167.011 36.178 166.587 36.0301C165.573 35.6888 164.652 35.3696 163.643 34.9522C163.547 34.9142 164.256 34.6407 163.445 34.5186C162.125 34.327 160.453 33.9965 158.886 34.3985C158.413 34.5229 158.482 35.1793 157.463 34.8396C157.248 34.775 157.394 33.9224 156.342 34.8041C156.127 34.9463 154.494 36.2479 153.412 35.9519C153.151 35.8764 152.437 35.509 151.898 35.6669C151.842 35.6835 151.788 35.7051 151.736 35.7326C151.662 35.7754 152.097 36.008 151.623 36.2075C149.958 36.9058 148.291 37.5116 146.694 38.3474C146.281 38.5669 147.064 38.6228 146.45 38.9383C144.74 39.8148 142.606 40.8474 141.009 41.7367C140.429 42.0573 140.645 41.5509 140.587 41.5482C139.623 41.5199 139.627 42.4225 139.447 42.6024C138.303 43.7335 137.116 44.256 136.115 45.3147C135.834 45.6138 136.288 45.6696 136.25 45.7483C135.87 46.5428 135.87 45.66 135.447 45.9806C134.28 46.8663 133.228 48.1571 132.429 49.4013C132.14 49.8545 132.815 49.5876 132.559 49.9873C131.049 52.3677 129.874 55.0361 128.984 57.736C128.817 58.2444 128.59 57.8461 128.494 57.9383C127.819 58.5889 128.289 59.8704 128.317 60.131C128.431 61.3555 128.107 61.7869 128.069 62.8595C127.865 68.0865 128.596 74.8421 129.581 80.0786C130.841 86.9089 132.115 92.2744 133.668 99.0901C133.766 99.5306 134.081 98.999 134.171 99.3782C134.295 99.9217 134.412 100.462 134.521 100.999C135.314 104.887 136.341 108.894 137.755 112.783C137.885 113.142 138.086 112.494 138.308 113.065C138.774 114.255 139.28 115.743 139.616 117.012C139.775 117.617 139.166 116.955 139.332 117.559C139.722 118.968 140.273 120.465 140.898 121.846C141.167 122.439 141.176 121.377 141.497 122.159C143.677 127.418 146.083 132.53 148.164 137.961C148.307 138.333 147.721 139.011 148.243 139.705C148.477 139.661 148.716 139.537 148.947 139.453C152.8 146.88 156.567 154.31 160.83 161.571C161.011 161.878 161.071 161.126 161.423 161.719C163.453 165.135 165.583 168.356 167.41 172.022C167.592 172.384 166.831 172.625 167.574 173.564C167.705 173.73 168.768 175.182 169.163 175.48C169.219 175.519 169.34 175.049 169.665 175.526C171.548 178.304 173.447 181.269 175.177 184.148C175.456 184.613 174.813 184.357 175.01 184.691C176.405 187.057 178.369 189.314 179.63 191.631C180.475 193.184 179.56 193.05 179.59 194.188C179.594 194.349 180.23 195.233 179.961 195.504C179.284 196.188 178.132 196.383 177.447 197.162C177.299 197.329 178.368 198.37 177.423 197.986C177.358 197.959 176.58 197.205 176.28 197.098C176.071 197.024 175.959 197.519 175.608 197.312C175.258 197.104 175.273 196.581 174.756 196.189C174.237 195.798 174.043 196.277 173.27 195.302ZM258.937 74.5005C258.201 73.8238 257.62 75.0453 258.641 75.0895C258.691 75.0906 258.975 74.5347 258.937 74.5005ZM242.777 161.117C244.183 160.902 244.416 159.694 243.417 159.809C242.417 159.924 242.349 161.183 242.777 161.117ZM231.886 168.47C233.418 168.092 232.633 166.336 231.451 167.501C231.381 167.569 231.8 168.49 231.886 168.47ZM176.887 190.792C176.88 190.813 177.324 191.459 177.35 191.463C177.94 191.551 177.053 190.262 176.887 190.792ZM220.849 175.423C221.388 175.417 222.414 174.495 221.75 174.501C221.218 174.506 220.18 175.43 220.849 175.423ZM212.95 85.459C212.925 85.4525 212.481 85.7942 212.562 85.8748C212.823 86.1312 213.358 85.561 212.95 85.459ZM201.306 185.92C204.281 184.47 206.75 184.958 203.501 186.444C202.91 186.713 204.511 185.355 203.713 185.608C202.254 186.071 201.806 187.415 200.165 187.658C199.87 187.7 201.137 185.999 201.31 185.916C201.309 185.917 201.307 185.919 201.306 185.92ZM259.008 72.7962C258.999 72.7712 258.268 72.4901 258.244 72.5029C257.711 72.7658 259.161 73.3219 259.008 72.7962ZM199.536 69.4565C199.556 69.395 198.932 67.7095 198.873 67.6631C197.881 67.051 199.143 70.458 199.536 69.4565ZM286.549 114.429C286.87 115.356 286.731 116.44 286.058 117.007C286.263 116.167 286.414 115.298 286.549 114.429Z" fill="#932434"/>
</g>
<defs>
<filter id="filter0_g_61_240" x="120.665" y="28.1003" width="167.588" height="171.063" filterUnits="userSpaceOnUse" color-interpolation-filters="sRGB">
<feFlood flood-opacity="0" result="BackgroundImageFix"/>
<feBlend mode="normal" in="SourceGraphic" in2="BackgroundImageFix" result="shape"/>
<feTurbulence type="fractalNoise" baseFrequency="10.069466590881348 10.069466590881348" numOctaves="3" seed="9983" />
<feDisplacementMap in="shape" scale="2.1848227977752686" xChannelSelector="R" yChannelSelector="G" result="displacedImage" width="100%" height="100%" />
<feMerge result="effect1_texture_61_240">
<feMergeNode in="displacedImage"/>
</feMerge>
</filter>
</defs>
</svg>
