<svg width="44" height="44" viewBox="0 0 44 44" fill="none" xmlns="http://www.w3.org/2000/svg">
<path d="M30.58 2.96994C27.5 2.83846 24.4691 3.77494 22 5.62094C19.531 3.77494 16.5001 2.83846 13.42 2.96994C4.84005 2.96994 0.550049 8.11794 0.550049 15.8399C0.550049 27.7089 11.55 35.9369 19.9321 40.5019C20.5662 40.8485 21.2773 41.0302 22 41.0302C22.7228 41.0302 23.4339 40.8485 24.068 40.5019C32.505 35.9369 43.4501 27.7089 43.4501 15.8399C43.4501 8.11794 39.16 2.96994 30.58 2.96994Z" fill="#932434" stroke="white" stroke-opacity="0.27" stroke-width="1.1" stroke-miterlimit="10"/>
<path d="M31.196 7.38098C36.014 6.87498 37.697 9.58098 38.39 11.517" stroke="#DADADA" stroke-width="1.1" stroke-miterlimit="10" stroke-linecap="round"/>
</svg>
