<svg width="60" height="60" viewBox="0 0 60 60" fill="none" xmlns="http://www.w3.org/2000/svg">
<g filter="url(#filter0_d_57_215)">
<rect width="60" height="60" rx="30" fill="black" fill-opacity="0.4" shape-rendering="crispEdges"/>
<path d="M32.5331 7.37045L34.4882 4.14084L35.1192 4.22282L32.6865 8.3071L32.1456 8.23684L30.8708 3.67095L31.4906 3.75146L32.5331 7.37045ZM31.2765 3.72365L30.7144 8.05093L30.0495 7.96456L30.6116 3.63728L31.2765 3.72365ZM34.1176 8.49301L34.6797 4.16573L35.3446 4.25209L34.7825 8.57937L34.1176 8.49301ZM35.7492 10.4746C35.6429 10.4343 35.5515 10.3895 35.475 10.3402C35.3978 10.2927 35.3463 10.255 35.3205 10.2269L35.6894 9.73488C35.827 9.83161 35.9562 9.89682 36.0771 9.93053C36.198 9.96424 36.3214 9.95129 36.4473 9.8917C36.5743 9.83454 36.7152 9.71681 36.8699 9.53851L37.1077 9.26409L37.1546 4.59057L37.8346 4.8485L37.7276 8.52694L37.7701 8.54306L40.1296 5.71903L40.8096 5.97696L37.3044 9.99502C37.1466 10.1762 36.9839 10.314 36.8164 10.4085C36.6483 10.5047 36.4753 10.5576 36.2974 10.5671C36.1214 10.5773 35.9386 10.5465 35.7492 10.4746ZM40.6101 9.41133L41.2148 9.79447C41.1222 9.96897 41.1173 10.143 41.2002 10.3166C41.2846 10.4911 41.438 10.6489 41.6604 10.7898C41.8876 10.9337 42.1114 11.0105 42.3318 11.02C42.5532 11.028 42.7302 10.9272 42.863 10.7176C42.9411 10.5944 42.9786 10.468 42.9756 10.3383C42.9736 10.207 42.9336 10.0807 42.8556 9.95961C42.7777 9.83848 42.6635 9.73027 42.5131 9.63499L41.8796 9.2336L42.2019 8.72484L42.8354 9.12623C43.061 9.26915 43.2598 9.32337 43.4319 9.28889C43.6056 9.25542 43.7411 9.1619 43.8384 9.00831C43.9428 8.84352 43.968 8.67453 43.914 8.50135C43.8611 8.32656 43.7274 8.17126 43.5131 8.03543C43.2971 7.8986 43.0862 7.83336 42.8804 7.83973C42.6756 7.8445 42.521 7.92034 42.4167 8.06726L41.8216 7.6902C41.9536 7.49587 42.1254 7.3592 42.3369 7.28019C42.5494 7.19958 42.7822 7.17893 43.0353 7.21822C43.2895 7.25591 43.5445 7.35585 43.8005 7.51803C44.0597 7.68223 44.2556 7.87024 44.3882 8.08205C44.5234 8.29328 44.5939 8.50943 44.5995 8.7305C44.6078 8.95099 44.5501 9.15882 44.4265 9.35401C44.2947 9.56199 44.1299 9.69298 43.932 9.74698C43.7341 9.80098 43.53 9.79942 43.3195 9.74232L43.2952 9.78072C43.4283 9.8785 43.5207 9.99983 43.5724 10.1447C43.6267 10.289 43.6422 10.4433 43.6187 10.6078C43.5962 10.7707 43.5363 10.9289 43.439 11.0825C43.2971 11.3065 43.1134 11.4637 42.888 11.5541C42.6636 11.6428 42.4177 11.6664 42.1504 11.6248C41.884 11.5816 41.6165 11.4749 41.3477 11.3046C41.0869 11.1394 40.8802 10.949 40.7275 10.7335C40.5759 10.5163 40.4874 10.2932 40.4621 10.0642C40.4394 9.83459 40.4887 9.61696 40.6101 9.41133ZM46.0357 11.1902L46.9107 12.0828C47.2687 12.448 47.4498 12.8181 47.4541 13.1932C47.4584 13.5682 47.3186 13.8949 47.0345 14.1733C46.8479 14.3563 46.6357 14.4794 46.3981 14.5427C46.1617 14.6046 45.9161 14.5961 45.661 14.5173C45.4074 14.4371 45.1612 14.2752 44.9226 14.0318L43.6418 12.7253L46.7579 9.6706L47.2273 10.1494L44.5575 12.7666L45.3689 13.5943C45.5545 13.7836 45.757 13.8901 45.9764 13.9137C46.1958 13.9373 46.384 13.8722 46.5409 13.7184C46.7059 13.5567 46.7808 13.3639 46.7656 13.1401C46.7504 12.9163 46.65 12.7097 46.4644 12.5204L45.5893 11.6277L46.0357 11.1902ZM46.5136 15.6548L49.6297 12.6001L50.099 13.0788L46.9829 16.1335L46.5136 15.6548ZM47.8503 17.1081L51.5953 14.8683L51.9394 15.4437L50.3107 16.4178L50.5382 16.7981L52.9718 17.1699L53.4151 17.9111L50.7068 17.4785L49.6818 20.1704L49.2385 19.4292L50.0835 17.2555L49.7744 16.7386L48.1945 17.6835L47.8503 17.1081ZM50.4108 22.2254C50.3209 21.9639 50.2886 21.7096 50.3139 21.4626C50.3409 21.215 50.4269 20.9962 50.5719 20.8062C50.7186 20.6155 50.9264 20.474 51.195 20.3817C51.4314 20.3004 51.6391 20.2811 51.818 20.3238C51.9987 20.3658 52.1579 20.4503 52.2956 20.5772C52.4333 20.7041 52.5551 20.8545 52.661 21.0284C52.7692 21.2034 52.8688 21.3825 52.9598 21.5655C53.0782 21.8052 53.1722 22.0002 53.2419 22.1505C53.314 22.3019 53.383 22.4064 53.4488 22.4639C53.5152 22.5232 53.5995 22.5352 53.7016 22.5002L53.7231 22.4928C53.9881 22.4017 54.1692 22.2583 54.2662 22.0628C54.3638 21.869 54.3624 21.6261 54.2621 21.3342C54.1581 21.0315 54.0102 20.8169 53.8186 20.6906C53.6269 20.5642 53.4439 20.4919 53.2694 20.4738L53.2775 19.7981C53.5652 19.8194 53.8097 19.8955 54.0109 20.0266C54.2146 20.1589 54.3808 20.3221 54.5096 20.5161C54.6408 20.7113 54.7421 20.9128 54.8135 21.1206C54.8591 21.2532 54.8953 21.4109 54.9222 21.594C54.9514 21.7782 54.9454 21.9675 54.9041 22.1619C54.8634 22.3582 54.7639 22.5436 54.6056 22.7181C54.4473 22.8927 54.2043 23.0363 53.8765 23.149L51.1576 24.0835L50.9397 23.4495L51.4985 23.2574L51.4874 23.2251C51.3831 23.2129 51.2627 23.1742 51.1261 23.109C50.9895 23.0438 50.8568 22.9402 50.7279 22.7983C50.599 22.6563 50.4933 22.4654 50.4108 22.2254ZM51.0136 22.1263C51.0998 22.3771 51.2217 22.5715 51.3793 22.7096C51.5375 22.8494 51.7097 22.9365 51.8956 22.9707C52.0823 23.0067 52.2615 22.9951 52.4335 22.936L53.0138 22.7366C52.9723 22.7208 52.9224 22.6718 52.8642 22.5897C52.8083 22.5088 52.7502 22.4126 52.6899 22.3011C52.632 22.1909 52.5768 22.0827 52.5243 21.9766C52.4742 21.8716 52.4329 21.7867 52.4006 21.7217C52.3225 21.5643 52.2346 21.4222 52.137 21.2956C52.0418 21.1701 51.9316 21.0798 51.8065 21.0246C51.6839 20.9707 51.5419 20.9714 51.3807 21.0268C51.1604 21.1025 51.0218 21.2413 50.965 21.4431C50.9106 21.646 50.9268 21.8738 51.0136 22.1263ZM58.1058 30.0712L51.1043 28.334L51.0922 27.7204L58.0937 29.4577L58.1058 30.0712ZM51.6622 33.9482L55.8646 35.1235L54.9402 38.4285L50.7378 37.2531L50.9184 36.6075L54.5189 37.6145L55.0821 35.6009L51.4816 34.5938L51.6622 33.9482ZM49.6139 39.653C49.7431 39.4085 49.9064 39.211 50.1038 39.0604C50.3029 38.9107 50.5213 38.8237 50.7591 38.7994C50.9985 38.776 51.2438 38.8307 51.495 38.9634C51.716 39.0802 51.8722 39.2185 51.9635 39.3781C52.0565 39.5386 52.1038 39.7125 52.1055 39.8998C52.1072 40.0871 52.0808 40.2788 52.0264 40.475C51.9728 40.6737 51.9104 40.8689 51.8391 41.0604C51.7454 41.3108 51.6675 41.5128 51.6056 41.6664C51.5445 41.8226 51.5155 41.9444 51.5186 42.0317C51.5208 42.1207 51.5696 42.1904 51.6651 42.2409L51.6852 42.2515C51.933 42.3825 52.1614 42.4164 52.3704 42.3534C52.5785 42.292 52.7547 42.1248 52.8989 41.8519C53.0485 41.5689 53.1038 41.3143 53.0648 41.0881C53.0259 40.8618 52.9533 40.6789 52.8472 40.5392L53.3455 40.0828C53.5268 40.3072 53.6385 40.5376 53.6806 40.7741C53.7235 41.0131 53.7183 41.246 53.6649 41.4727C53.6123 41.7019 53.5346 41.9137 53.432 42.1079C53.3665 42.2318 53.2762 42.3662 53.1611 42.511C53.0468 42.6584 52.9046 42.7835 52.7345 42.8864C52.5636 42.991 52.3603 43.0453 52.1247 43.0493C51.8891 43.0533 51.618 42.9744 51.3116 42.8124L48.7698 41.469L49.0831 40.8762L49.6055 41.1524L49.6214 41.1222C49.5589 41.0378 49.5048 40.9235 49.4589 40.7792C49.413 40.635 49.3977 40.4674 49.413 40.2762C49.4284 40.0851 49.4953 39.8774 49.6139 39.653ZM50.0986 40.0248C49.9747 40.2593 49.9163 40.4812 49.9235 40.6906C49.9297 40.9017 49.984 41.0868 50.0863 41.2458C50.1877 41.4065 50.3188 41.5294 50.4796 41.6143L51.0221 41.9011C51.0052 41.86 51.0068 41.7901 51.0268 41.6915C51.0476 41.5954 51.078 41.4872 51.118 41.3669C51.1588 41.2492 51.1999 41.1349 51.2414 41.0241C51.2837 40.9157 51.3174 40.8275 51.3427 40.7595C51.404 40.5948 51.4475 40.4335 51.473 40.2757C51.4994 40.1204 51.4899 39.9783 51.4445 39.8493C51.3999 39.7229 51.3023 39.6199 51.1516 39.5403C50.9456 39.4314 50.7496 39.4253 50.5636 39.5219C50.3784 39.6211 50.2234 39.7887 50.0986 40.0248ZM46.608 41.8042C46.6811 41.7172 46.7536 41.6457 46.8253 41.5898C46.8957 41.5326 46.9483 41.4965 46.9833 41.4813L47.326 41.992C47.1893 42.0899 47.085 42.1903 47.0133 42.2933C46.9416 42.3963 46.9131 42.5171 46.9277 42.6556C46.9398 42.7944 47.0044 42.9662 47.1216 43.1712L47.3021 43.4862L51.6982 45.0734L51.2302 45.6301L47.7933 44.3147L47.7641 44.3495L49.6508 47.509L49.1829 48.0657L46.5472 43.4306C46.4283 43.2218 46.352 43.0228 46.3181 42.8335C46.2828 42.643 46.29 42.4622 46.3397 42.2912C46.3882 42.1217 46.4776 41.9593 46.608 41.8042ZM45.9978 46.7543L45.4391 47.2019C45.3041 47.0577 45.1411 46.9966 44.95 47.0186C44.7575 47.0418 44.5585 47.1357 44.3531 47.3003C44.1432 47.4685 43.9979 47.6552 43.9173 47.8605C43.8379 48.0674 43.8758 48.2676 44.0309 48.4612C44.1221 48.575 44.2295 48.6515 44.3532 48.6908C44.478 48.7315 44.6104 48.7347 44.7503 48.7003C44.8902 48.6658 45.0296 48.593 45.1685 48.4817L45.7538 48.0127L46.1304 48.4827L45.5451 48.9517C45.3367 49.1187 45.2208 49.2891 45.1976 49.4631C45.1729 49.6382 45.2174 49.7967 45.3311 49.9386C45.453 50.0908 45.6047 50.1695 45.786 50.1747C45.9685 50.1814 46.1588 50.1054 46.3568 49.9467C46.5564 49.7868 46.6865 49.6085 46.7473 49.4118C46.8093 49.2165 46.7877 49.0457 46.6826 48.8994L47.2325 48.4589C47.3734 48.6469 47.4469 48.8537 47.453 49.0794C47.4602 49.3066 47.4042 49.5335 47.2849 49.7601C47.1667 49.9883 46.9894 50.1971 46.7529 50.3865C46.5135 50.5784 46.2721 50.7026 46.0287 50.7593C45.785 50.8186 45.5577 50.8151 45.3467 50.7487C45.1355 50.685 44.9576 50.563 44.8132 50.3826C44.6592 50.1905 44.5888 49.9921 44.602 49.7874C44.6152 49.5827 44.6829 49.3901 44.8052 49.2096L44.7768 49.1741C44.6411 49.2682 44.4963 49.3163 44.3425 49.3181C44.1884 49.3227 44.0374 49.2872 43.8895 49.2116C43.7427 49.1374 43.6125 49.0294 43.4988 48.8875C43.333 48.6806 43.244 48.4559 43.2317 48.2133C43.2205 47.9723 43.278 47.732 43.4042 47.4927C43.5315 47.2548 43.7193 47.0363 43.9676 46.8374C44.2085 46.6444 44.4557 46.5106 44.7091 46.4362C44.9638 46.3633 45.2035 46.352 45.4283 46.4024C45.6529 46.4555 45.8427 46.5728 45.9978 46.7543ZM40.6246 49.0889C40.8709 48.9633 41.1181 48.8957 41.3662 48.8861C41.6152 48.8781 41.8439 48.9326 42.0523 49.0495C42.2617 49.1681 42.4309 49.354 42.56 49.607C42.6735 49.8297 42.7218 50.0326 42.7046 50.2157C42.6883 50.4005 42.627 50.57 42.5206 50.7241C42.4143 50.8783 42.2825 51.02 42.1251 51.1491C41.9669 51.2809 41.8036 51.4046 41.6351 51.5203C41.4144 51.6711 41.2345 51.7916 41.0955 51.8816C40.9556 51.9742 40.8619 52.0571 40.8142 52.1304C40.7648 52.2044 40.7646 52.2896 40.8137 52.3857L40.824 52.406C40.9514 52.6557 41.1187 52.8148 41.3259 52.8835C41.5314 52.953 41.7717 52.9176 42.0467 52.7773C42.3318 52.6319 42.5235 52.4554 42.6218 52.248C42.7201 52.0405 42.766 51.8491 42.7595 51.6739L43.4296 51.5872C43.4489 51.875 43.4077 52.1277 43.3061 52.3454C43.2037 52.5656 43.0655 52.7531 42.8914 52.9078C42.7165 53.065 42.5311 53.1936 42.3354 53.2934C42.2106 53.3571 42.0594 53.415 41.882 53.4673C41.7037 53.5221 41.5154 53.5426 41.3171 53.529C41.1171 53.5162 40.9196 53.4437 40.7245 53.3114C40.5295 53.1791 40.3533 52.9586 40.1958 52.6499L38.8894 50.0888L39.4867 49.7842L39.7552 50.3106L39.7855 50.2951C39.783 50.1901 39.8045 50.0654 39.8499 49.921C39.8953 49.7767 39.9793 49.6307 40.1017 49.4832C40.2242 49.3357 40.3985 49.2043 40.6246 49.0889ZM40.8071 49.6719C40.5709 49.7924 40.3955 49.9403 40.2809 50.1158C40.1646 50.292 40.1025 50.4746 40.0947 50.6636C40.0852 50.8534 40.1218 51.0293 40.2044 51.1912L40.4832 51.7379C40.493 51.6946 40.5345 51.6384 40.6076 51.5692C40.68 51.5025 40.767 51.4315 40.8689 51.3562C40.97 51.2833 41.0694 51.2135 41.1671 51.1467C41.264 51.0824 41.3423 51.0296 41.4021 50.9885C41.547 50.8891 41.6754 50.7822 41.7871 50.6678C41.898 50.5559 41.972 50.4342 42.009 50.3026C42.0453 50.1736 42.0247 50.0331 41.9472 49.8813C41.8414 49.6738 41.6846 49.556 41.4768 49.5281C41.2683 49.5026 41.045 49.5506 40.8071 49.6719ZM33.9954 57.8338L34.6071 50.646L35.2111 50.5373L34.5993 57.7251L33.9954 57.8338ZM26.7662 52.5351L24.7325 55.7158L24.1036 55.6183L26.6359 51.595L27.1749 51.6785L28.3372 56.2743L27.7195 56.1786L26.7662 52.5351ZM27.9329 56.2117L28.6011 51.8995L29.2636 52.0022L28.5954 56.3144L27.9329 56.2117ZM25.2097 51.374L24.5416 55.6862L23.879 55.5835L24.5472 51.2714L25.2097 51.374ZM23.6509 49.3568C23.7559 49.4003 23.8459 49.4478 23.9209 49.4993C23.9967 49.549 24.0471 49.5883 24.072 49.6171L23.6887 50.098C23.5541 49.9973 23.4269 49.9282 23.307 49.891C23.1872 49.8537 23.0634 49.863 22.9358 49.9188C22.8072 49.9722 22.6629 50.0857 22.5029 50.2593L22.2571 50.5266L22.0719 55.1967L21.3998 54.9187L21.6157 51.2451L21.5736 51.2277L19.1316 53.9806L18.4595 53.7027L22.0821 49.7902C22.2452 49.6137 22.4119 49.4808 22.5821 49.3913C22.7531 49.3001 22.9276 49.2524 23.1056 49.2481C23.2819 49.2432 23.4636 49.2794 23.6509 49.3568ZM18.7577 50.2745L18.1646 49.8736C18.2623 49.7019 18.2724 49.5281 18.1947 49.3521C18.1155 49.1751 17.9668 49.0129 17.7487 48.8655C17.5259 48.7148 17.3045 48.6315 17.0845 48.6153C16.8635 48.6008 16.6835 48.6963 16.5445 48.9018C16.4628 49.0226 16.4216 49.1479 16.4208 49.2777C16.4189 49.409 16.4551 49.5363 16.5294 49.6597C16.6037 49.7831 16.7146 49.8947 16.8621 49.9944L17.4835 50.4144L17.1461 50.9134L16.5248 50.4933C16.3036 50.3438 16.1064 50.2837 15.9334 50.313C15.7589 50.3413 15.6206 50.4308 15.5188 50.5814C15.4096 50.743 15.3793 50.9112 15.4281 51.0859C15.4758 51.2622 15.6048 51.4214 15.8151 51.5635C16.0269 51.7067 16.2357 51.7782 16.4417 51.7779C16.6465 51.7793 16.8033 51.708 16.9119 51.5643L17.4956 51.9589C17.3578 52.1492 17.182 52.2807 16.9682 52.3534C16.7534 52.4276 16.5201 52.4414 16.2683 52.3946C16.0154 52.3493 15.7634 52.2419 15.5124 52.0721C15.2582 51.9003 15.068 51.7066 14.9417 51.4909C14.8128 51.2758 14.7488 51.0576 14.7497 50.8365C14.748 50.6158 14.8118 50.4098 14.9412 50.2184C15.0791 50.0144 15.2478 49.8884 15.4472 49.8403C15.6466 49.7922 15.8506 49.7998 16.0593 49.8631L16.0847 49.8255C15.9546 49.7238 15.8658 49.5998 15.8184 49.4534C15.7684 49.3076 15.7576 49.1528 15.786 48.9891C15.8133 48.827 15.8778 48.6706 15.9797 48.52C16.1282 48.3003 16.3164 48.1486 16.5444 48.065C16.7713 47.983 17.0178 47.9667 17.2838 48.0162C17.5488 48.0673 17.813 48.1819 18.0766 48.3601C18.3324 48.533 18.5334 48.7295 18.6795 48.9495C18.8247 49.171 18.9065 49.3966 18.925 49.6263C18.9408 49.8565 18.885 50.0726 18.7577 50.2745ZM13.3858 48.331L12.5398 47.4108C12.1937 47.0343 12.0245 46.6586 12.0323 46.2836C12.04 45.9086 12.1902 45.5865 12.483 45.3174C12.6754 45.1405 12.8914 45.0242 13.131 44.9686C13.3692 44.9143 13.6145 44.9306 13.8668 45.0176C14.1178 45.1059 14.3587 45.2755 14.5894 45.5265L15.8276 46.8733L12.6153 49.8267L12.1615 49.3331L14.9138 46.8028L14.1293 45.9495C13.9498 45.7543 13.7508 45.6414 13.5323 45.6108C13.3137 45.5801 13.1236 45.6392 12.9619 45.7879C12.7918 45.9442 12.7107 46.1345 12.7187 46.3587C12.7267 46.5829 12.8205 46.7926 12.9999 46.9878L13.8459 47.908L13.3858 48.331ZM13.0512 43.8534L9.83884 46.8067L9.38507 46.3131L12.5974 43.3598L13.0512 43.8534ZM11.7516 42.3466L7.94368 44.4776L7.61627 43.8925L9.27232 42.9658L9.0559 42.579L6.63403 42.1373L6.21229 41.3836L8.90699 41.8941L10.0091 39.2329L10.4309 39.9865L9.52362 42.135L9.81773 42.6606L11.4242 41.7616L11.7516 42.3466ZM9.34894 37.1643C9.4302 37.4286 9.45416 37.6837 9.42082 37.9298C9.38567 38.1764 9.29254 38.3922 9.14141 38.5774C8.98848 38.7631 8.77624 38.8977 8.50469 38.9812C8.26573 39.0547 8.05756 39.0672 7.88017 39.0187C7.70097 38.9707 7.54462 38.8811 7.41111 38.7497C7.27761 38.6184 7.16082 38.4641 7.06074 38.2868C6.9583 38.1083 6.86463 37.926 6.77973 37.7401C6.66923 37.4967 6.58162 37.2988 6.5169 37.1463C6.44982 36.9925 6.38433 36.8858 6.32043 36.8262C6.25598 36.7648 6.17215 36.75 6.06897 36.7817L6.04724 36.7884C5.77932 36.8707 5.59367 37.0081 5.49031 37.2003C5.38638 37.3908 5.37978 37.6336 5.4705 37.9286C5.56456 38.2346 5.70529 38.4539 5.89268 38.5865C6.08008 38.7191 6.26066 38.7973 6.43443 38.8212L6.4042 39.4962C6.11736 39.4655 5.87551 39.3813 5.67865 39.2437C5.47942 39.1049 5.31863 38.9363 5.19628 38.7382C5.07156 38.5387 4.97693 38.334 4.91236 38.124C4.87118 37.9901 4.84016 37.8312 4.81932 37.6474C4.79611 37.4623 4.80834 37.2733 4.856 37.0803C4.90311 36.8855 5.00863 36.7035 5.17256 36.5342C5.33649 36.3649 5.5841 36.2293 5.91539 36.1275L8.66345 35.2826L8.86047 35.9235L8.29566 36.0971L8.30567 36.1297C8.40955 36.1453 8.52866 36.188 8.66302 36.2576C8.79737 36.3273 8.92664 36.4351 9.05081 36.5812C9.17498 36.7273 9.27436 36.9217 9.34894 37.1643ZM8.7432 37.2435C8.66528 36.99 8.54983 36.7917 8.39683 36.6485C8.24327 36.5036 8.07411 36.4109 7.88934 36.3706C7.70402 36.3285 7.52446 36.3342 7.35067 36.3876L6.76413 36.568C6.80506 36.5851 6.8533 36.6357 6.90884 36.7196C6.96201 36.8024 7.01692 36.9004 7.07357 37.0138C7.12785 37.1259 7.17948 37.2358 7.22847 37.3436C7.27509 37.4501 7.3135 37.5364 7.34371 37.6024C7.41663 37.7623 7.4998 37.9071 7.5932 38.0369C7.68424 38.1655 7.79137 38.2593 7.91458 38.3185C8.03544 38.3765 8.17733 38.3804 8.34025 38.3303C8.56292 38.2619 8.70596 38.1278 8.76936 37.9279C8.8304 37.7269 8.82168 37.4987 8.7432 37.2435ZM1.91106 29.1022L8.87474 30.9855L8.87401 31.5991L1.91033 29.7159L1.91106 29.1022ZM8.44288 25.4042L4.28446 24.0818L5.32451 20.8113L9.48293 22.1338L9.27974 22.7727L5.71693 21.6397L5.08326 23.6323L8.64607 24.7653L8.44288 25.4042ZM10.691 19.7706C10.5534 20.0105 10.3834 20.2023 10.1809 20.346C9.97682 20.4888 9.75553 20.5682 9.51707 20.5843C9.27696 20.5994 9.03368 20.5364 8.78723 20.3951C8.57036 20.2707 8.41905 20.1272 8.33331 19.9645C8.24593 19.8009 8.20461 19.6254 8.20935 19.4382C8.21409 19.251 8.24702 19.0603 8.30815 18.8661C8.36858 18.6693 8.4377 18.4765 8.5155 18.2875C8.61782 18.0405 8.70257 17.8413 8.76974 17.6899C8.83621 17.5359 8.8694 17.4152 8.86929 17.3278C8.87013 17.2387 8.82372 17.1674 8.73007 17.1137L8.71035 17.1024C8.46719 16.9629 8.24009 16.9212 8.02905 16.977C7.81896 17.0312 7.63713 17.1922 7.48357 17.46C7.32436 17.7377 7.26032 17.9902 7.29146 18.2176C7.32261 18.4451 7.38881 18.6304 7.49008 18.7736L6.97638 19.2126C6.80289 18.9822 6.69916 18.748 6.66522 18.5102C6.63057 18.2699 6.64384 18.0373 6.70501 17.8126C6.76549 17.5853 6.85036 17.3764 6.95965 17.1858C7.02936 17.0642 7.12423 16.933 7.24424 16.7922C7.36355 16.6489 7.50997 16.5287 7.68348 16.4317C7.85793 16.3331 8.06296 16.2858 8.29858 16.2899C8.53419 16.294 8.80233 16.3823 9.103 16.5547L11.5971 17.9848L11.2636 18.5664L10.751 18.2725L10.734 18.302C10.7936 18.3886 10.8438 18.5047 10.8847 18.6504C10.9256 18.7961 10.9351 18.9642 10.9132 19.1547C10.8913 19.3452 10.8172 19.5505 10.691 19.7706ZM10.2194 19.3823C10.3513 19.1523 10.4172 18.9325 10.4173 18.723C10.4183 18.5118 10.3704 18.325 10.2737 18.1625C10.1778 17.9984 10.051 17.8711 9.89332 17.7807L9.36098 17.4754C9.37643 17.517 9.37245 17.5868 9.34905 17.6847C9.32494 17.7801 9.29084 17.8871 9.24674 18.0059C9.20193 18.1222 9.15689 18.235 9.11163 18.3444C9.06566 18.4512 9.02889 18.5382 9.0013 18.6053C8.93435 18.7678 8.88537 18.9275 8.85436 19.0843C8.82265 19.2386 8.82726 19.381 8.86818 19.5114C8.90839 19.6393 9.00243 19.7456 9.15031 19.8304C9.3524 19.9463 9.54806 19.9591 9.7373 19.869C9.92584 19.7762 10.0865 19.614 10.2194 19.3823ZM13.7815 17.7017C13.7059 17.7865 13.6315 17.8559 13.5581 17.9098C13.4862 17.9649 13.4326 17.9996 13.3972 18.0137L13.0692 17.4935C13.2086 17.3995 13.3156 17.3021 13.3903 17.2012C13.4649 17.1003 13.4968 16.9804 13.4861 16.8415C13.478 16.7024 13.4183 16.5288 13.307 16.3206L13.1355 16.0006L8.78643 14.289L9.27004 13.7458L12.6681 15.1584L12.6983 15.1245L10.9022 11.9126L11.3858 11.3694L13.8885 16.0776C14.0014 16.2897 14.0721 16.4909 14.1006 16.6811C14.1305 16.8725 14.1181 17.053 14.0636 17.2225C14.0103 17.3906 13.9163 17.5503 13.7815 17.7017ZM14.5276 12.7762L15.0998 12.3459C15.2303 12.4942 15.3914 12.5603 15.583 12.5442C15.7762 12.5269 15.978 12.4391 16.1884 12.2809C16.4033 12.1193 16.5542 11.9371 16.6411 11.7343C16.7268 11.5301 16.6952 11.3288 16.546 11.1305C16.4584 11.0139 16.3534 10.9341 16.231 10.8911C16.1074 10.8466 15.9752 10.8393 15.8344 10.8694C15.6935 10.8995 15.5519 10.9681 15.4096 11.0751L14.8102 11.5258L14.4482 11.0445L15.0476 10.5937C15.2611 10.4332 15.3821 10.2664 15.4107 10.0933C15.4408 9.91898 15.4012 9.75918 15.2919 9.61386C15.1746 9.45794 15.0255 9.37461 14.8444 9.36384C14.6622 9.35157 14.4697 9.4217 14.2668 9.57422C14.0625 9.72788 13.9269 9.9021 13.8601 10.0969C13.7922 10.2901 13.8085 10.4615 13.909 10.611L13.3459 11.0345C13.2108 10.8422 13.1437 10.6332 13.1446 10.4074C13.1443 10.1802 13.2073 9.95508 13.3335 9.7322C13.4586 9.5078 13.6423 9.30454 13.8845 9.12242C14.1297 8.93803 14.3748 8.82124 14.6198 8.77208C14.8652 8.72026 15.0923 8.73077 15.3011 8.80362C15.5103 8.87381 15.6843 9.00125 15.8232 9.18593C15.9711 9.38271 16.0354 9.5832 16.016 9.78739C15.9965 9.99158 15.9229 10.182 15.7951 10.3587L15.8224 10.395C15.9609 10.3051 16.1071 10.2615 16.2609 10.2644C16.415 10.2646 16.5649 10.3047 16.7105 10.3848C16.8549 10.4634 16.9817 10.5754 17.091 10.7207C17.2503 10.9326 17.3324 11.16 17.3373 11.4028C17.341 11.6441 17.2761 11.8824 17.1427 12.1178C17.0082 12.3517 16.8137 12.5642 16.5594 12.7555C16.3127 12.941 16.0615 13.0671 15.8059 13.1337C15.5492 13.1988 15.3092 13.2027 15.086 13.1454C14.8632 13.0854 14.6771 12.9624 14.5276 12.7762ZM19.9741 10.5996C19.7244 10.7184 19.4754 10.7792 19.2272 10.782C18.9781 10.7831 18.7509 10.7223 18.5458 10.5997C18.3398 10.4754 18.1758 10.285 18.0537 10.0285C17.9463 9.80272 17.9036 9.59858 17.9258 9.41602C17.9472 9.23176 18.0132 9.06403 18.1237 8.91285C18.2342 8.76167 18.3699 8.62368 18.5308 8.49889C18.6925 8.37158 18.8592 8.25241 19.0308 8.14139C19.2555 7.99666 19.4387 7.8812 19.5801 7.79501C19.7225 7.70628 19.8185 7.62598 19.8682 7.55409C19.9196 7.48139 19.9221 7.3963 19.8757 7.29882L19.8659 7.2783C19.7455 7.02519 19.5826 6.86149 19.3774 6.78718C19.1738 6.71205 18.9327 6.74082 18.6539 6.87348C18.3649 7.01102 18.1684 7.18214 18.0645 7.38682C17.9605 7.5915 17.9094 7.78154 17.911 7.95693L17.2388 8.02517C17.2274 7.73692 17.2755 7.4854 17.3831 7.27062C17.4915 7.05332 17.6349 6.86974 17.8131 6.71987C17.9923 6.56748 18.1811 6.44409 18.3795 6.34968C18.506 6.28945 18.6587 6.23567 18.8375 6.18832C19.0172 6.13845 19.206 6.12306 19.4039 6.14216C19.6035 6.16045 19.7989 6.23838 19.9902 6.37596C20.1816 6.51353 20.3517 6.7388 20.5006 7.05176L21.7361 9.64778L21.1307 9.93588L20.8767 9.40231L20.846 9.41696C20.8456 9.522 20.8207 9.64605 20.7714 9.78911C20.722 9.93216 20.6341 10.0757 20.5076 10.2198C20.3811 10.3639 20.2033 10.4905 19.9741 10.5996ZM19.8076 10.0118C20.0471 9.89784 20.2265 9.75478 20.3459 9.58259C20.467 9.40959 20.5341 9.22875 20.5471 9.04009C20.5618 8.85061 20.53 8.67379 20.4519 8.50961L20.1882 7.95552C20.1772 7.99851 20.1342 8.05359 20.0592 8.12075C19.9851 8.18538 19.8961 8.25396 19.7922 8.32649C19.6891 8.39649 19.5879 8.46356 19.4883 8.5277C19.3897 8.58932 19.31 8.63987 19.249 8.67934C19.1015 8.77474 18.9703 8.87808 18.8554 8.98936C18.7415 9.09812 18.6642 9.21776 18.6235 9.34828C18.5838 9.47627 18.6005 9.61723 18.6737 9.77114C18.7738 9.98149 18.9273 10.1035 19.1342 10.1372C19.342 10.1683 19.5665 10.1265 19.8076 10.0118ZM26.821 2.01858L26.0457 9.19064L25.4395 9.28553L26.2147 2.11347L26.821 2.01858Z" fill="white"/>
<rect x="12.5" y="12.5" width="35" height="35" rx="17.5" stroke="white" stroke-dasharray="2 2"/>
<path d="M28.09 29.963L37.364 26.631V32.171C36.7826 31.8386 36.1237 31.6658 35.454 31.67C33.496 31.67 31.909 33.096 31.909 34.855C31.909 36.614 33.496 38.04 35.454 38.04C37.413 38.04 39 36.614 39 34.855V25.492C39 24.372 39 23.433 38.912 22.685C38.9 22.5814 38.8856 22.478 38.869 22.375C38.785 21.865 38.635 21.387 38.347 20.989C38.1674 20.7382 37.9371 20.528 37.671 20.372L37.662 20.367C36.891 19.906 36.023 19.939 35.13 20.143C34.266 20.341 33.194 20.743 31.88 21.238L29.596 22.097C28.981 22.328 28.459 22.524 28.049 22.727C27.614 22.943 27.239 23.198 26.957 23.578C26.676 23.958 26.559 24.368 26.505 24.812C26.455 25.23 26.455 25.738 26.455 26.337V34.131C25.8736 33.7986 25.2147 33.6258 24.545 33.63C22.587 33.63 21 35.056 21 36.815C21 38.574 22.587 40 24.545 40C26.504 40 28.091 38.574 28.091 36.815L28.09 29.963Z" fill="white"/>
</g>
<defs>
<filter id="filter0_d_57_215" x="-10" y="-10" width="80" height="80" filterUnits="userSpaceOnUse" color-interpolation-filters="sRGB">
<feFlood flood-opacity="0" result="BackgroundImageFix"/>
<feColorMatrix in="SourceAlpha" type="matrix" values="0 0 0 0 0 0 0 0 0 0 0 0 0 0 0 0 0 0 127 0" result="hardAlpha"/>
<feOffset/>
<feComposite in2="hardAlpha" operator="out"/>
<feColorMatrix type="matrix" values="0 0 0 0 0 0 0 0 0 0 0 0 0 0 0 0 0 0 0.25 0"/>
<feBlend mode="normal" in2="BackgroundImageFix" result="effect1_dropShadow_57_215"/>
<feBlend mode="normal" in="SourceGraphic" in2="effect1_dropShadow_57_215" result="shape"/>
</filter>
</defs>
</svg>
