<svg width="390" height="128" viewBox="0 0 390 128" fill="none" xmlns="http://www.w3.org/2000/svg">
<path d="M-33.9237 54.192C-34.9691 54.192 -35.8917 53.9413 -36.6917 53.44C-37.4811 52.9387 -38.0891 52.256 -38.5157 51.392C-38.9424 50.5173 -39.1557 49.5573 -39.1557 48.512C-39.1557 47.3813 -38.9104 46.368 -38.4197 45.472C-37.9291 44.576 -37.2464 43.8773 -36.3717 43.376C-35.4971 42.864 -34.5051 42.608 -33.3957 42.608C-32.7344 42.608 -32.1104 42.6827 -31.5237 42.832C-30.9371 42.9813 -30.4677 43.1467 -30.1157 43.328V46.112H-30.2757C-30.5424 45.2373 -31.0117 44.5173 -31.6837 43.952C-32.3451 43.376 -33.1131 43.088 -33.9877 43.088C-34.6811 43.088 -35.2837 43.2747 -35.7957 43.648C-36.3077 44.0107 -36.7024 44.5333 -36.9797 45.216C-37.2464 45.888 -37.3797 46.6773 -37.3797 47.584C-37.3797 48.5653 -37.1984 49.4507 -36.8357 50.24C-36.4731 51.0293 -35.9717 51.6533 -35.3317 52.112C-34.6811 52.56 -33.9451 52.784 -33.1237 52.784C-32.3237 52.784 -31.6411 52.576 -31.0757 52.16C-30.5104 51.744 -30.0571 51.1627 -29.7157 50.416H-29.5557C-29.6837 51.1307 -29.9397 51.776 -30.3237 52.352C-30.7077 52.9173 -31.2091 53.3653 -31.8277 53.696C-32.4464 54.0267 -33.1451 54.192 -33.9237 54.192ZM-23.2184 54.192C-24.2744 54.192 -25.2077 53.952 -26.0184 53.472C-26.8184 52.992 -27.4424 52.3147 -27.8904 51.44C-28.3277 50.5547 -28.5464 49.5413 -28.5464 48.4C-28.5464 47.2587 -28.3277 46.2507 -27.8904 45.376C-27.4424 44.4907 -26.8184 43.808 -26.0184 43.328C-25.2077 42.848 -24.2744 42.608 -23.2184 42.608C-22.1624 42.608 -21.2344 42.848 -20.4344 43.328C-19.6237 43.808 -18.9997 44.4853 -18.5624 45.36C-18.1144 46.2347 -17.8904 47.248 -17.8904 48.4C-17.8904 49.552 -18.1144 50.5653 -18.5624 51.44C-18.9997 52.3147 -19.6237 52.992 -20.4344 53.472C-21.2344 53.952 -22.1624 54.192 -23.2184 54.192ZM-23.2184 53.808C-22.557 53.808 -21.981 53.584 -21.4904 53.136C-20.9997 52.6773 -20.6264 52.0373 -20.3704 51.216C-20.1037 50.3947 -19.9704 49.456 -19.9704 48.4C-19.9704 47.344 -20.1037 46.4053 -20.3704 45.584C-20.6264 44.7627 -20.9997 44.128 -21.4904 43.68C-21.981 43.2213 -22.557 42.992 -23.2184 42.992C-23.8797 42.992 -24.4557 43.2213 -24.9464 43.68C-25.4264 44.128 -25.7997 44.7627 -26.0664 45.584C-26.333 46.4053 -26.4664 47.344 -26.4664 48.4C-26.4664 49.456 -26.333 50.3947 -26.0664 51.216C-25.7997 52.0373 -25.4264 52.6773 -24.9464 53.136C-24.4557 53.584 -23.8797 53.808 -23.2184 53.808ZM-17.5115 53.92C-17.1488 53.6853 -16.8288 53.4293 -16.5515 53.152C-16.2635 52.8747 -15.9702 52.5173 -15.6715 52.08L-13.3035 48.56L-15.7035 44.688C-15.9275 44.3253 -16.1622 44.0053 -16.4075 43.728C-16.6528 43.4507 -16.9355 43.168 -17.2555 42.88V42.8H-13.7035V42.88C-13.8315 43.072 -13.8955 43.3013 -13.8955 43.568C-13.8955 43.952 -13.7622 44.3573 -13.4955 44.784L-11.8795 47.408L-10.0555 44.656C-9.7995 44.2613 -9.6715 43.9093 -9.6715 43.6C-9.6715 43.3333 -9.76217 43.0933 -9.9435 42.88V42.8H-7.7675V42.88C-8.13017 43.104 -8.45017 43.3493 -8.7275 43.616C-9.00483 43.8827 -9.2875 44.2347 -9.5755 44.672L-11.6555 47.76L-8.9195 52.112C-8.49283 52.784 -7.98083 53.3867 -7.3835 53.92V54H-10.9195V53.92C-10.7915 53.696 -10.7275 53.456 -10.7275 53.2C-10.7275 52.8267 -10.8608 52.4267 -11.1275 52L-13.0795 48.928L-15.1595 52.064C-15.4368 52.4693 -15.5755 52.848 -15.5755 53.2C-15.5755 53.4773 -15.4902 53.7173 -15.3195 53.92V54H-17.5115V53.92ZM-5.893 53.92C-5.733 53.696 -5.605 53.4293 -5.509 53.12C-5.413 52.8 -5.365 52.464 -5.365 52.112V44.688C-5.365 44.336 -5.413 44.0053 -5.509 43.696C-5.605 43.376 -5.733 43.104 -5.893 42.88V42.8H-1.717C-0.479666 42.8 0.549667 43.056 1.371 43.568C2.203 44.0693 2.619 44.9067 2.619 46.08C2.619 46.8373 2.427 47.472 2.043 47.984C1.659 48.4853 1.15767 48.8533 0.539001 49.088C-0.0689996 49.3227 -0.725 49.44 -1.429 49.44C-1.98367 49.44 -2.49567 49.344 -2.965 49.152V48.928C-2.613 49.0133 -2.245 49.056 -1.861 49.056C-1.061 49.056 -0.447666 48.7733 -0.0209994 48.208C0.405667 47.6427 0.619 46.9333 0.619 46.08C0.619 45.2693 0.400334 44.5813 -0.0369997 44.016C-0.474333 43.4507 -1.093 43.168 -1.893 43.168C-2.213 43.168 -2.49033 43.1893 -2.725 43.232C-2.949 43.264 -3.189 43.3227 -3.445 43.408V52.112C-3.445 52.464 -3.397 52.8 -3.301 53.12C-3.205 53.4293 -3.077 53.696 -2.917 53.92V54H-5.893V53.92ZM1.843 53.92C2.40833 53.504 2.84567 52.9013 3.155 52.112L6.835 42.768H7.763L11.427 52.096C11.587 52.512 11.747 52.8533 11.907 53.12C12.067 53.3867 12.275 53.6533 12.531 53.92V54H9.123V53.92C9.38967 53.6107 9.523 53.248 9.523 52.832C9.523 52.5867 9.46967 52.336 9.363 52.08L8.611 50.192H4.371L3.651 52C3.54433 52.256 3.491 52.512 3.491 52.768C3.491 53.2373 3.667 53.6213 4.019 53.92V54H1.843V53.92ZM6.499 44.72L4.499 49.824H8.483L6.499 44.72ZM13.8883 53.92C14.0483 53.696 14.1763 53.4293 14.2723 53.12C14.3683 52.8 14.4163 52.464 14.4163 52.112V44.688C14.4163 44.336 14.3683 44.0053 14.2723 43.696C14.1763 43.376 14.0483 43.104 13.8883 42.88V42.8H16.8643V42.88C16.7043 43.104 16.5763 43.376 16.4803 43.696C16.3843 44.0053 16.3363 44.336 16.3363 44.688V48.048H21.5043V44.688C21.5043 44.336 21.4563 44.0053 21.3603 43.696C21.2643 43.376 21.1363 43.104 20.9763 42.88V42.8H23.9523V42.88C23.7923 43.104 23.6643 43.376 23.5683 43.696C23.4723 44.0053 23.4243 44.336 23.4243 44.688V52.112C23.4243 52.464 23.4723 52.8 23.5683 53.12C23.6643 53.4293 23.7923 53.696 23.9523 53.92V54H20.9763V53.92C21.1363 53.696 21.2643 53.4293 21.3603 53.12C21.4563 52.8 21.5043 52.464 21.5043 52.112V48.416H16.3363V52.112C16.3363 52.464 16.3843 52.8 16.4803 53.12C16.5763 53.4293 16.7043 53.696 16.8643 53.92V54H13.8883V53.92ZM26.4195 53.92C26.5795 53.696 26.7075 53.4293 26.8035 53.12C26.8995 52.8 26.9475 52.464 26.9475 52.112V44.688C26.9475 44.336 26.8995 44.0053 26.8035 43.696C26.7075 43.376 26.5795 43.104 26.4195 42.88V42.8H29.3955V42.88C29.2355 43.104 29.1075 43.376 29.0115 43.696C28.9155 44.0053 28.8675 44.336 28.8675 44.688V51.392L34.0835 44.688C34.0835 44.336 34.0355 44.0053 33.9395 43.696C33.8435 43.376 33.7155 43.104 33.5555 42.88V42.8H36.5315V42.88C36.3715 43.104 36.2435 43.376 36.1475 43.696C36.0515 44.0053 36.0035 44.336 36.0035 44.688V52.112C36.0035 52.464 36.0515 52.8 36.1475 53.12C36.2435 53.4293 36.3715 53.696 36.5315 53.92V54H33.5555V53.92C33.7155 53.696 33.8435 53.4293 33.9395 53.12C34.0355 52.8 34.0835 52.464 34.0835 52.112V45.408L28.8675 52.112C28.8675 52.464 28.9155 52.8 29.0115 53.12C29.1075 53.4293 29.2355 53.696 29.3955 53.92V54H26.4195V53.92ZM41.4776 53.92C41.6376 53.696 41.7656 53.4293 41.8616 53.12C41.9576 52.8 42.0056 52.464 42.0056 52.112V43.168H41.2056C40.395 43.168 39.739 43.3867 39.2376 43.824C38.7363 44.2613 38.299 44.9013 37.9256 45.744H37.7656L38.1336 42.8H47.8136L48.1656 45.744H48.0056C47.643 44.9013 47.211 44.2613 46.7096 43.824C46.2083 43.3867 45.5523 43.168 44.7416 43.168H43.9256V52.112C43.9256 52.464 43.9736 52.8 44.0696 53.12C44.1656 53.4293 44.2936 53.696 44.4536 53.92V54H41.4776V53.92ZM49.4039 53.92C49.5639 53.696 49.6919 53.4293 49.7879 53.12C49.8839 52.8 49.9319 52.464 49.9319 52.112V44.688C49.9319 44.336 49.8839 44.0053 49.7879 43.696C49.6919 43.376 49.5639 43.104 49.4039 42.88V42.8H56.9399L57.3079 45.648H57.1479C56.7852 44.816 56.3479 44.1973 55.8359 43.792C55.3345 43.376 54.6145 43.168 53.6759 43.168H51.8519V48.16H53.6279C54.6625 48.16 55.3185 47.648 55.5959 46.624H55.7559V50.064H55.5959C55.3185 49.04 54.6625 48.528 53.6279 48.528H51.8519V53.632H54.0439C54.6945 53.632 55.2385 53.5307 55.6759 53.328C56.1132 53.1253 56.4705 52.848 56.7479 52.496C57.0252 52.144 57.2812 51.696 57.5159 51.152H57.6759L57.3079 54H49.4039V53.92ZM61.4211 57.152V53.632H61.5011C62.1411 53.6213 62.7011 53.1787 63.1811 52.304C63.6611 51.4293 64.0291 50.3947 64.2851 49.2C64.5411 47.9947 64.6691 46.9547 64.6691 46.08C64.6691 44.576 64.2531 43.5093 63.4211 42.88V42.8H71.0691V42.88C70.9091 43.104 70.7811 43.376 70.6851 43.696C70.5891 44.0053 70.5411 44.336 70.5411 44.688V53.632H71.9011V57.152H71.6611C71.5438 56.2453 71.2238 55.4933 70.7011 54.896C70.1891 54.2987 69.4958 54 68.6211 54H64.7011C63.8265 54 63.1278 54.2987 62.6051 54.896C62.0931 55.4933 61.7785 56.2453 61.6611 57.152H61.4211ZM68.6211 53.632V43.168H65.1971C65.2078 43.3707 65.2131 43.744 65.2131 44.288C65.2131 46.5493 65.0105 48.4 64.6051 49.84C64.1998 51.28 63.6558 52.544 62.9731 53.632H68.6211ZM72.3742 53.92C72.9396 53.504 73.3769 52.9013 73.6863 52.112L77.3663 42.768H78.2943L81.9583 52.096C82.1183 52.512 82.2783 52.8533 82.4383 53.12C82.5983 53.3867 82.8063 53.6533 83.0623 53.92V54H79.6543V53.92C79.9209 53.6107 80.0543 53.248 80.0543 52.832C80.0543 52.5867 80.0009 52.336 79.8943 52.08L79.1423 50.192H74.9023L74.1823 52C74.0756 52.256 74.0223 52.512 74.0223 52.768C74.0223 53.2373 74.1983 53.6213 74.5503 53.92V54H72.3742V53.92ZM77.0303 44.72L75.0303 49.824H79.0143L77.0303 44.72ZM86.1026 53.92C86.2626 53.696 86.3906 53.4293 86.4866 53.12C86.5826 52.8 86.6306 52.464 86.6306 52.112V43.168H85.8306C85.02 43.168 84.364 43.3867 83.8626 43.824C83.3613 44.2613 82.924 44.9013 82.5506 45.744H82.3906L82.7586 42.8H92.4386L92.7906 45.744H92.6306C92.268 44.9013 91.836 44.2613 91.3346 43.824C90.8333 43.3867 90.1773 43.168 89.3666 43.168H88.5506V52.112C88.5506 52.464 88.5986 52.8 88.6946 53.12C88.7906 53.4293 88.9186 53.696 89.0786 53.92V54H86.1026V53.92ZM94.3969 52.768H95.1009C95.6235 52.768 96.0449 52.7467 96.3649 52.704C96.6849 52.6507 96.9782 52.5387 97.2449 52.368C97.5222 52.1867 97.7675 51.9147 97.9809 51.552L94.5249 44.72C94.1409 43.952 93.6875 43.3387 93.1649 42.88V42.8H96.6049V42.88C96.4342 43.1253 96.3489 43.3867 96.3489 43.664C96.3489 43.9627 96.4502 44.3307 96.6529 44.768L98.9729 49.536L101.085 44.848C101.234 44.5387 101.309 44.2293 101.309 43.92C101.309 43.4827 101.154 43.136 100.845 42.88V42.8H103.021V42.88C102.488 43.2427 102.029 43.84 101.645 44.672L98.6049 51.216C98.1995 52.08 97.8209 52.736 97.4689 53.184C97.1275 53.632 96.7222 53.952 96.2529 54.144C95.7835 54.3467 95.1649 54.448 94.3969 54.448V52.768Z" fill="#070707"/>
<path d="M65.0763 86.192C64.0309 86.192 63.1083 85.9413 62.3083 85.44C61.5189 84.9387 60.9109 84.256 60.4843 83.392C60.0576 82.5173 59.8443 81.5573 59.8443 80.512C59.8443 79.3813 60.0896 78.368 60.5803 77.472C61.0709 76.576 61.7536 75.8773 62.6283 75.376C63.5029 74.864 64.4949 74.608 65.6043 74.608C66.2656 74.608 66.8896 74.6827 67.4763 74.832C68.0629 74.9813 68.5323 75.1467 68.8843 75.328V78.112H68.7243C68.4576 77.2373 67.9883 76.5173 67.3163 75.952C66.6549 75.376 65.8869 75.088 65.0123 75.088C64.3189 75.088 63.7163 75.2747 63.2043 75.648C62.6923 76.0107 62.2976 76.5333 62.0203 77.216C61.7536 77.888 61.6203 78.6773 61.6203 79.584C61.6203 80.5653 61.8016 81.4507 62.1643 82.24C62.5269 83.0293 63.0283 83.6533 63.6683 84.112C64.3189 84.56 65.0549 84.784 65.8763 84.784C66.6763 84.784 67.3589 84.576 67.9243 84.16C68.4896 83.744 68.9429 83.1627 69.2843 82.416H69.4443C69.3163 83.1307 69.0603 83.776 68.6763 84.352C68.2923 84.9173 67.7909 85.3653 67.1723 85.696C66.5536 86.0267 65.8549 86.192 65.0763 86.192ZM75.7816 86.192C74.7256 86.192 73.7923 85.952 72.9816 85.472C72.1816 84.992 71.5576 84.3147 71.1096 83.44C70.6723 82.5547 70.4536 81.5413 70.4536 80.4C70.4536 79.2587 70.6723 78.2507 71.1096 77.376C71.5576 76.4907 72.1816 75.808 72.9816 75.328C73.7923 74.848 74.7256 74.608 75.7816 74.608C76.8376 74.608 77.7656 74.848 78.5656 75.328C79.3763 75.808 80.0003 76.4853 80.4376 77.36C80.8856 78.2347 81.1096 79.248 81.1096 80.4C81.1096 81.552 80.8856 82.5653 80.4376 83.44C80.0003 84.3147 79.3763 84.992 78.5656 85.472C77.7656 85.952 76.8376 86.192 75.7816 86.192ZM75.7816 85.808C76.443 85.808 77.019 85.584 77.5096 85.136C78.0003 84.6773 78.3736 84.0373 78.6296 83.216C78.8963 82.3947 79.0296 81.456 79.0296 80.4C79.0296 79.344 78.8963 78.4053 78.6296 77.584C78.3736 76.7627 78.0003 76.128 77.5096 75.68C77.019 75.2213 76.443 74.992 75.7816 74.992C75.1203 74.992 74.5443 75.2213 74.0536 75.68C73.5736 76.128 73.2003 76.7627 72.9336 77.584C72.667 78.4053 72.5336 79.344 72.5336 80.4C72.5336 81.456 72.667 82.3947 72.9336 83.216C73.2003 84.0373 73.5736 84.6773 74.0536 85.136C74.5443 85.584 75.1203 85.808 75.7816 85.808ZM81.4885 85.92C81.8512 85.6853 82.1712 85.4293 82.4485 85.152C82.7365 84.8747 83.0298 84.5173 83.3285 84.08L85.6965 80.56L83.2965 76.688C83.0725 76.3253 82.8378 76.0053 82.5925 75.728C82.3472 75.4507 82.0645 75.168 81.7445 74.88V74.8H85.2965V74.88C85.1685 75.072 85.1045 75.3013 85.1045 75.568C85.1045 75.952 85.2378 76.3573 85.5045 76.784L87.1205 79.408L88.9445 76.656C89.2005 76.2613 89.3285 75.9093 89.3285 75.6C89.3285 75.3333 89.2378 75.0933 89.0565 74.88V74.8H91.2325V74.88C90.8698 75.104 90.5498 75.3493 90.2725 75.616C89.9952 75.8827 89.7125 76.2347 89.4245 76.672L87.3445 79.76L90.0805 84.112C90.5072 84.784 91.0192 85.3867 91.6165 85.92V86H88.0805V85.92C88.2085 85.696 88.2725 85.456 88.2725 85.2C88.2725 84.8267 88.1392 84.4267 87.8725 84L85.9205 80.928L83.8405 84.064C83.5632 84.4693 83.4245 84.848 83.4245 85.2C83.4245 85.4773 83.5098 85.7173 83.6805 85.92V86H81.4885V85.92ZM93.107 85.92C93.267 85.696 93.395 85.4293 93.491 85.12C93.587 84.8 93.635 84.464 93.635 84.112V76.688C93.635 76.336 93.587 76.0053 93.491 75.696C93.395 75.376 93.267 75.104 93.107 74.88V74.8H97.283C98.5203 74.8 99.5497 75.056 100.371 75.568C101.203 76.0693 101.619 76.9067 101.619 78.08C101.619 78.8373 101.427 79.472 101.043 79.984C100.659 80.4853 100.158 80.8533 99.539 81.088C98.931 81.3227 98.275 81.44 97.571 81.44C97.0163 81.44 96.5043 81.344 96.035 81.152V80.928C96.387 81.0133 96.755 81.056 97.139 81.056C97.939 81.056 98.5523 80.7733 98.979 80.208C99.4057 79.6427 99.619 78.9333 99.619 78.08C99.619 77.2693 99.4003 76.5813 98.963 76.016C98.5257 75.4507 97.907 75.168 97.107 75.168C96.787 75.168 96.5097 75.1893 96.275 75.232C96.051 75.264 95.811 75.3227 95.555 75.408V84.112C95.555 84.464 95.603 84.8 95.699 85.12C95.795 85.4293 95.923 85.696 96.083 85.92V86H93.107V85.92ZM100.843 85.92C101.408 85.504 101.846 84.9013 102.155 84.112L105.835 74.768H106.763L110.427 84.096C110.587 84.512 110.747 84.8533 110.907 85.12C111.067 85.3867 111.275 85.6533 111.531 85.92V86H108.123V85.92C108.39 85.6107 108.523 85.248 108.523 84.832C108.523 84.5867 108.47 84.336 108.363 84.08L107.611 82.192H103.371L102.651 84C102.544 84.256 102.491 84.512 102.491 84.768C102.491 85.2373 102.667 85.6213 103.019 85.92V86H100.843V85.92ZM105.499 76.72L103.499 81.824H107.483L105.499 76.72ZM112.888 85.92C113.048 85.696 113.176 85.4293 113.272 85.12C113.368 84.8 113.416 84.464 113.416 84.112V76.688C113.416 76.336 113.368 76.0053 113.272 75.696C113.176 75.376 113.048 75.104 112.888 74.88V74.8H115.864V74.88C115.704 75.104 115.576 75.376 115.48 75.696C115.384 76.0053 115.336 76.336 115.336 76.688V80.048H120.504V76.688C120.504 76.336 120.456 76.0053 120.36 75.696C120.264 75.376 120.136 75.104 119.976 74.88V74.8H122.952V74.88C122.792 75.104 122.664 75.376 122.568 75.696C122.472 76.0053 122.424 76.336 122.424 76.688V84.112C122.424 84.464 122.472 84.8 122.568 85.12C122.664 85.4293 122.792 85.696 122.952 85.92V86H119.976V85.92C120.136 85.696 120.264 85.4293 120.36 85.12C120.456 84.8 120.504 84.464 120.504 84.112V80.416H115.336V84.112C115.336 84.464 115.384 84.8 115.48 85.12C115.576 85.4293 115.704 85.696 115.864 85.92V86H112.888V85.92ZM125.42 85.92C125.58 85.696 125.708 85.4293 125.804 85.12C125.9 84.8 125.948 84.464 125.948 84.112V76.688C125.948 76.336 125.9 76.0053 125.804 75.696C125.708 75.376 125.58 75.104 125.42 74.88V74.8H128.396V74.88C128.236 75.104 128.108 75.376 128.012 75.696C127.916 76.0053 127.868 76.336 127.868 76.688V83.392L133.084 76.688C133.084 76.336 133.036 76.0053 132.94 75.696C132.844 75.376 132.716 75.104 132.556 74.88V74.8H135.532V74.88C135.372 75.104 135.244 75.376 135.148 75.696C135.052 76.0053 135.004 76.336 135.004 76.688V84.112C135.004 84.464 135.052 84.8 135.148 85.12C135.244 85.4293 135.372 85.696 135.532 85.92V86H132.556V85.92C132.716 85.696 132.844 85.4293 132.94 85.12C133.036 84.8 133.084 84.464 133.084 84.112V77.408L127.868 84.112C127.868 84.464 127.916 84.8 128.012 85.12C128.108 85.4293 128.236 85.696 128.396 85.92V86H125.42V85.92ZM140.478 85.92C140.638 85.696 140.766 85.4293 140.862 85.12C140.958 84.8 141.006 84.464 141.006 84.112V75.168H140.206C139.395 75.168 138.739 75.3867 138.238 75.824C137.736 76.2613 137.299 76.9013 136.926 77.744H136.766L137.134 74.8H146.814L147.166 77.744H147.006C146.643 76.9013 146.211 76.2613 145.71 75.824C145.208 75.3867 144.552 75.168 143.742 75.168H142.926V84.112C142.926 84.464 142.974 84.8 143.07 85.12C143.166 85.4293 143.294 85.696 143.454 85.92V86H140.478V85.92ZM148.404 85.92C148.564 85.696 148.692 85.4293 148.788 85.12C148.884 84.8 148.932 84.464 148.932 84.112V76.688C148.932 76.336 148.884 76.0053 148.788 75.696C148.692 75.376 148.564 75.104 148.404 74.88V74.8H155.94L156.308 77.648H156.148C155.785 76.816 155.348 76.1973 154.836 75.792C154.335 75.376 153.615 75.168 152.676 75.168H150.852V80.16H152.628C153.663 80.16 154.319 79.648 154.596 78.624H154.756V82.064H154.596C154.319 81.04 153.663 80.528 152.628 80.528H150.852V85.632H153.044C153.695 85.632 154.239 85.5307 154.676 85.328C155.113 85.1253 155.471 84.848 155.748 84.496C156.025 84.144 156.281 83.696 156.516 83.152H156.676L156.308 86H148.404V85.92ZM160.421 89.152V85.632H160.501C161.141 85.6213 161.701 85.1787 162.181 84.304C162.661 83.4293 163.029 82.3947 163.285 81.2C163.541 79.9947 163.669 78.9547 163.669 78.08C163.669 76.576 163.253 75.5093 162.421 74.88V74.8H170.069V74.88C169.909 75.104 169.781 75.376 169.685 75.696C169.589 76.0053 169.541 76.336 169.541 76.688V85.632H170.901V89.152H170.661C170.544 88.2453 170.224 87.4933 169.701 86.896C169.189 86.2987 168.496 86 167.621 86H163.701C162.826 86 162.128 86.2987 161.605 86.896C161.093 87.4933 160.778 88.2453 160.661 89.152H160.421ZM167.621 85.632V75.168H164.197C164.208 75.3707 164.213 75.744 164.213 76.288C164.213 78.5493 164.01 80.4 163.605 81.84C163.2 83.28 162.656 84.544 161.973 85.632H167.621ZM171.374 85.92C171.94 85.504 172.377 84.9013 172.686 84.112L176.366 74.768H177.294L180.958 84.096C181.118 84.512 181.278 84.8533 181.438 85.12C181.598 85.3867 181.806 85.6533 182.062 85.92V86H178.654V85.92C178.921 85.6107 179.054 85.248 179.054 84.832C179.054 84.5867 179.001 84.336 178.894 84.08L178.142 82.192H173.902L173.182 84C173.076 84.256 173.022 84.512 173.022 84.768C173.022 85.2373 173.198 85.6213 173.55 85.92V86H171.374V85.92ZM176.03 76.72L174.03 81.824H178.014L176.03 76.72ZM185.103 85.92C185.263 85.696 185.391 85.4293 185.487 85.12C185.583 84.8 185.631 84.464 185.631 84.112V75.168H184.831C184.02 75.168 183.364 75.3867 182.863 75.824C182.361 76.2613 181.924 76.9013 181.551 77.744H181.391L181.759 74.8H191.439L191.791 77.744H191.631C191.268 76.9013 190.836 76.2613 190.335 75.824C189.833 75.3867 189.177 75.168 188.367 75.168H187.551V84.112C187.551 84.464 187.599 84.8 187.695 85.12C187.791 85.4293 187.919 85.696 188.079 85.92V86H185.103V85.92ZM193.397 84.768H194.101C194.624 84.768 195.045 84.7467 195.365 84.704C195.685 84.6507 195.978 84.5387 196.245 84.368C196.522 84.1867 196.768 83.9147 196.981 83.552L193.525 76.72C193.141 75.952 192.688 75.3387 192.165 74.88V74.8H195.605V74.88C195.434 75.1253 195.349 75.3867 195.349 75.664C195.349 75.9627 195.45 76.3307 195.653 76.768L197.973 81.536L200.085 76.848C200.234 76.5387 200.309 76.2293 200.309 75.92C200.309 75.4827 200.154 75.136 199.845 74.88V74.8H202.021V74.88C201.488 75.2427 201.029 75.84 200.645 76.672L197.605 83.216C197.2 84.08 196.821 84.736 196.469 85.184C196.128 85.632 195.722 85.952 195.253 86.144C194.784 86.3467 194.165 86.448 193.397 86.448V84.768Z" fill="#070707"/>
<path d="M-97.9237 86.192C-98.9691 86.192 -99.8917 85.9413 -100.692 85.44C-101.481 84.9387 -102.089 84.256 -102.516 83.392C-102.942 82.5173 -103.156 81.5573 -103.156 80.512C-103.156 79.3813 -102.91 78.368 -102.42 77.472C-101.929 76.576 -101.246 75.8773 -100.372 75.376C-99.4971 74.864 -98.5051 74.608 -97.3957 74.608C-96.7344 74.608 -96.1104 74.6827 -95.5237 74.832C-94.9371 74.9813 -94.4677 75.1467 -94.1157 75.328V78.112H-94.2757C-94.5424 77.2373 -95.0117 76.5173 -95.6837 75.952C-96.3451 75.376 -97.1131 75.088 -97.9877 75.088C-98.6811 75.088 -99.2837 75.2747 -99.7957 75.648C-100.308 76.0107 -100.702 76.5333 -100.98 77.216C-101.246 77.888 -101.38 78.6773 -101.38 79.584C-101.38 80.5653 -101.198 81.4507 -100.836 82.24C-100.473 83.0293 -99.9717 83.6533 -99.3317 84.112C-98.6811 84.56 -97.9451 84.784 -97.1237 84.784C-96.3237 84.784 -95.6411 84.576 -95.0757 84.16C-94.5104 83.744 -94.0571 83.1627 -93.7157 82.416H-93.5557C-93.6837 83.1307 -93.9397 83.776 -94.3237 84.352C-94.7077 84.9173 -95.2091 85.3653 -95.8277 85.696C-96.4464 86.0267 -97.1451 86.192 -97.9237 86.192ZM-87.2184 86.192C-88.2744 86.192 -89.2077 85.952 -90.0184 85.472C-90.8184 84.992 -91.4424 84.3147 -91.8904 83.44C-92.3277 82.5547 -92.5464 81.5413 -92.5464 80.4C-92.5464 79.2587 -92.3277 78.2507 -91.8904 77.376C-91.4424 76.4907 -90.8184 75.808 -90.0184 75.328C-89.2077 74.848 -88.2744 74.608 -87.2184 74.608C-86.1624 74.608 -85.2344 74.848 -84.4344 75.328C-83.6237 75.808 -82.9997 76.4853 -82.5624 77.36C-82.1144 78.2347 -81.8904 79.248 -81.8904 80.4C-81.8904 81.552 -82.1144 82.5653 -82.5624 83.44C-82.9997 84.3147 -83.6237 84.992 -84.4344 85.472C-85.2344 85.952 -86.1624 86.192 -87.2184 86.192ZM-87.2184 85.808C-86.557 85.808 -85.981 85.584 -85.4904 85.136C-84.9997 84.6773 -84.6264 84.0373 -84.3704 83.216C-84.1037 82.3947 -83.9704 81.456 -83.9704 80.4C-83.9704 79.344 -84.1037 78.4053 -84.3704 77.584C-84.6264 76.7627 -84.9997 76.128 -85.4904 75.68C-85.981 75.2213 -86.557 74.992 -87.2184 74.992C-87.8797 74.992 -88.4557 75.2213 -88.9464 75.68C-89.4264 76.128 -89.7997 76.7627 -90.0664 77.584C-90.333 78.4053 -90.4664 79.344 -90.4664 80.4C-90.4664 81.456 -90.333 82.3947 -90.0664 83.216C-89.7997 84.0373 -89.4264 84.6773 -88.9464 85.136C-88.4557 85.584 -87.8797 85.808 -87.2184 85.808ZM-81.5115 85.92C-81.1488 85.6853 -80.8288 85.4293 -80.5515 85.152C-80.2635 84.8747 -79.9702 84.5173 -79.6715 84.08L-77.3035 80.56L-79.7035 76.688C-79.9275 76.3253 -80.1622 76.0053 -80.4075 75.728C-80.6528 75.4507 -80.9355 75.168 -81.2555 74.88V74.8H-77.7035V74.88C-77.8315 75.072 -77.8955 75.3013 -77.8955 75.568C-77.8955 75.952 -77.7622 76.3573 -77.4955 76.784L-75.8795 79.408L-74.0555 76.656C-73.7995 76.2613 -73.6715 75.9093 -73.6715 75.6C-73.6715 75.3333 -73.7622 75.0933 -73.9435 74.88V74.8H-71.7675V74.88C-72.1302 75.104 -72.4502 75.3493 -72.7275 75.616C-73.0048 75.8827 -73.2875 76.2347 -73.5755 76.672L-75.6555 79.76L-72.9195 84.112C-72.4928 84.784 -71.9808 85.3867 -71.3835 85.92V86H-74.9195V85.92C-74.7915 85.696 -74.7275 85.456 -74.7275 85.2C-74.7275 84.8267 -74.8608 84.4267 -75.1275 84L-77.0795 80.928L-79.1595 84.064C-79.4368 84.4693 -79.5755 84.848 -79.5755 85.2C-79.5755 85.4773 -79.4902 85.7173 -79.3195 85.92V86H-81.5115V85.92ZM-69.893 85.92C-69.733 85.696 -69.605 85.4293 -69.509 85.12C-69.413 84.8 -69.365 84.464 -69.365 84.112V76.688C-69.365 76.336 -69.413 76.0053 -69.509 75.696C-69.605 75.376 -69.733 75.104 -69.893 74.88V74.8H-65.717C-64.4797 74.8 -63.4503 75.056 -62.629 75.568C-61.797 76.0693 -61.381 76.9067 -61.381 78.08C-61.381 78.8373 -61.573 79.472 -61.957 79.984C-62.341 80.4853 -62.8423 80.8533 -63.461 81.088C-64.069 81.3227 -64.725 81.44 -65.429 81.44C-65.9837 81.44 -66.4957 81.344 -66.965 81.152V80.928C-66.613 81.0133 -66.245 81.056 -65.861 81.056C-65.061 81.056 -64.4477 80.7733 -64.021 80.208C-63.5943 79.6427 -63.381 78.9333 -63.381 78.08C-63.381 77.2693 -63.5997 76.5813 -64.037 76.016C-64.4743 75.4507 -65.093 75.168 -65.893 75.168C-66.213 75.168 -66.4903 75.1893 -66.725 75.232C-66.949 75.264 -67.189 75.3227 -67.445 75.408V84.112C-67.445 84.464 -67.397 84.8 -67.301 85.12C-67.205 85.4293 -67.077 85.696 -66.917 85.92V86H-69.893V85.92ZM-62.157 85.92C-61.5917 85.504 -61.1543 84.9013 -60.845 84.112L-57.165 74.768H-56.237L-52.573 84.096C-52.413 84.512 -52.253 84.8533 -52.093 85.12C-51.933 85.3867 -51.725 85.6533 -51.469 85.92V86H-54.877V85.92C-54.6103 85.6107 -54.477 85.248 -54.477 84.832C-54.477 84.5867 -54.5303 84.336 -54.637 84.08L-55.389 82.192H-59.629L-60.349 84C-60.4557 84.256 -60.509 84.512 -60.509 84.768C-60.509 85.2373 -60.333 85.6213 -59.981 85.92V86H-62.157V85.92ZM-57.501 76.72L-59.501 81.824H-55.517L-57.501 76.72ZM-50.1117 85.92C-49.9517 85.696 -49.8237 85.4293 -49.7277 85.12C-49.6317 84.8 -49.5837 84.464 -49.5837 84.112V76.688C-49.5837 76.336 -49.6317 76.0053 -49.7277 75.696C-49.8237 75.376 -49.9517 75.104 -50.1117 74.88V74.8H-47.1357V74.88C-47.2957 75.104 -47.4237 75.376 -47.5197 75.696C-47.6157 76.0053 -47.6637 76.336 -47.6637 76.688V80.048H-42.4957V76.688C-42.4957 76.336 -42.5437 76.0053 -42.6397 75.696C-42.7357 75.376 -42.8637 75.104 -43.0237 74.88V74.8H-40.0477V74.88C-40.2077 75.104 -40.3357 75.376 -40.4317 75.696C-40.5277 76.0053 -40.5757 76.336 -40.5757 76.688V84.112C-40.5757 84.464 -40.5277 84.8 -40.4317 85.12C-40.3357 85.4293 -40.2077 85.696 -40.0477 85.92V86H-43.0237V85.92C-42.8637 85.696 -42.7357 85.4293 -42.6397 85.12C-42.5437 84.8 -42.4957 84.464 -42.4957 84.112V80.416H-47.6637V84.112C-47.6637 84.464 -47.6157 84.8 -47.5197 85.12C-47.4237 85.4293 -47.2957 85.696 -47.1357 85.92V86H-50.1117V85.92ZM-37.5805 85.92C-37.4205 85.696 -37.2925 85.4293 -37.1965 85.12C-37.1005 84.8 -37.0525 84.464 -37.0525 84.112V76.688C-37.0525 76.336 -37.1005 76.0053 -37.1965 75.696C-37.2925 75.376 -37.4205 75.104 -37.5805 74.88V74.8H-34.6045V74.88C-34.7645 75.104 -34.8925 75.376 -34.9885 75.696C-35.0845 76.0053 -35.1325 76.336 -35.1325 76.688V83.392L-29.9165 76.688C-29.9165 76.336 -29.9645 76.0053 -30.0605 75.696C-30.1565 75.376 -30.2845 75.104 -30.4445 74.88V74.8H-27.4685V74.88C-27.6285 75.104 -27.7565 75.376 -27.8525 75.696C-27.9485 76.0053 -27.9965 76.336 -27.9965 76.688V84.112C-27.9965 84.464 -27.9485 84.8 -27.8525 85.12C-27.7565 85.4293 -27.6285 85.696 -27.4685 85.92V86H-30.4445V85.92C-30.2845 85.696 -30.1565 85.4293 -30.0605 85.12C-29.9645 84.8 -29.9165 84.464 -29.9165 84.112V77.408L-35.1325 84.112C-35.1325 84.464 -35.0845 84.8 -34.9885 85.12C-34.8925 85.4293 -34.7645 85.696 -34.6045 85.92V86H-37.5805V85.92ZM-22.5224 85.92C-22.3624 85.696 -22.2344 85.4293 -22.1384 85.12C-22.0424 84.8 -21.9944 84.464 -21.9944 84.112V75.168H-22.7944C-23.605 75.168 -24.261 75.3867 -24.7624 75.824C-25.2637 76.2613 -25.701 76.9013 -26.0744 77.744H-26.2344L-25.8664 74.8H-16.1864L-15.8344 77.744H-15.9944C-16.357 76.9013 -16.789 76.2613 -17.2904 75.824C-17.7917 75.3867 -18.4477 75.168 -19.2584 75.168H-20.0744V84.112C-20.0744 84.464 -20.0264 84.8 -19.9304 85.12C-19.8344 85.4293 -19.7064 85.696 -19.5464 85.92V86H-22.5224V85.92ZM-14.5961 85.92C-14.4361 85.696 -14.3081 85.4293 -14.2121 85.12C-14.1161 84.8 -14.0681 84.464 -14.0681 84.112V76.688C-14.0681 76.336 -14.1161 76.0053 -14.2121 75.696C-14.3081 75.376 -14.4361 75.104 -14.5961 74.88V74.8H-7.06012L-6.69212 77.648H-6.85212C-7.21479 76.816 -7.65212 76.1973 -8.16412 75.792C-8.66546 75.376 -9.38546 75.168 -10.3241 75.168H-12.1481V80.16H-10.3721C-9.33746 80.16 -8.68146 79.648 -8.40412 78.624H-8.24412V82.064H-8.40412C-8.68146 81.04 -9.33746 80.528 -10.3721 80.528H-12.1481V85.632H-9.95612C-9.30546 85.632 -8.76146 85.5307 -8.32412 85.328C-7.88679 85.1253 -7.52946 84.848 -7.25212 84.496C-6.97479 84.144 -6.71879 83.696 -6.48412 83.152H-6.32412L-6.69212 86H-14.5961V85.92ZM-2.57888 89.152V85.632H-2.49887C-1.85887 85.6213 -1.29887 85.1787 -0.818875 84.304C-0.338875 83.4293 0.0291251 82.3947 0.285125 81.2C0.541125 79.9947 0.669125 78.9547 0.669125 78.08C0.669125 76.576 0.253125 75.5093 -0.578875 74.88V74.8H7.06913V74.88C6.90913 75.104 6.78113 75.376 6.68513 75.696C6.58913 76.0053 6.54113 76.336 6.54113 76.688V85.632H7.90113V89.152H7.66113C7.54379 88.2453 7.22379 87.4933 6.70113 86.896C6.18913 86.2987 5.49579 86 4.62113 86H0.701125C-0.173542 86 -0.872208 86.2987 -1.39487 86.896C-1.90687 87.4933 -2.22154 88.2453 -2.33887 89.152H-2.57888ZM4.62113 85.632V75.168H1.19713C1.20779 75.3707 1.21313 75.744 1.21313 76.288C1.21313 78.5493 1.01046 80.4 0.605125 81.84C0.199792 83.28 -0.344208 84.544 -1.02687 85.632H4.62113ZM8.37425 85.92C8.93958 85.504 9.37692 84.9013 9.68625 84.112L13.3663 74.768H14.2943L17.9583 84.096C18.1183 84.512 18.2783 84.8533 18.4383 85.12C18.5983 85.3867 18.8063 85.6533 19.0623 85.92V86H15.6543V85.92C15.9209 85.6107 16.0543 85.248 16.0543 84.832C16.0543 84.5867 16.0009 84.336 15.8943 84.08L15.1423 82.192H10.9023L10.1823 84C10.0756 84.256 10.0223 84.512 10.0223 84.768C10.0223 85.2373 10.1983 85.6213 10.5503 85.92V86H8.37425V85.92ZM13.0303 76.72L11.0303 81.824H15.0143L13.0303 76.72ZM22.1026 85.92C22.2626 85.696 22.3906 85.4293 22.4866 85.12C22.5826 84.8 22.6306 84.464 22.6306 84.112V75.168H21.8306C21.02 75.168 20.364 75.3867 19.8626 75.824C19.3613 76.2613 18.924 76.9013 18.5506 77.744H18.3906L18.7586 74.8H28.4386L28.7906 77.744H28.6306C28.268 76.9013 27.836 76.2613 27.3346 75.824C26.8333 75.3867 26.1773 75.168 25.3666 75.168H24.5506V84.112C24.5506 84.464 24.5986 84.8 24.6946 85.12C24.7906 85.4293 24.9186 85.696 25.0786 85.92V86H22.1026V85.92ZM30.3969 84.768H31.1009C31.6235 84.768 32.0449 84.7467 32.3649 84.704C32.6849 84.6507 32.9782 84.5387 33.2449 84.368C33.5222 84.1867 33.7675 83.9147 33.9809 83.552L30.5249 76.72C30.1409 75.952 29.6875 75.3387 29.1649 74.88V74.8H32.6049V74.88C32.4342 75.1253 32.3489 75.3867 32.3489 75.664C32.3489 75.9627 32.4502 76.3307 32.6529 76.768L34.9729 81.536L37.0849 76.848C37.2342 76.5387 37.3089 76.2293 37.3089 75.92C37.3089 75.4827 37.1542 75.136 36.8449 74.88V74.8H39.0209V74.88C38.4875 75.2427 38.0289 75.84 37.6449 76.672L34.6049 83.216C34.1995 84.08 33.8209 84.736 33.4689 85.184C33.1275 85.632 32.7222 85.952 32.2529 86.144C31.7835 86.3467 31.1649 86.448 30.3969 86.448V84.768Z" fill="#070707"/>
<path d="M129.076 54.192C128.031 54.192 127.108 53.9413 126.308 53.44C125.519 52.9387 124.911 52.256 124.484 51.392C124.058 50.5173 123.844 49.5573 123.844 48.512C123.844 47.3813 124.09 46.368 124.58 45.472C125.071 44.576 125.754 43.8773 126.628 43.376C127.503 42.864 128.495 42.608 129.604 42.608C130.266 42.608 130.89 42.6827 131.476 42.832C132.063 42.9813 132.532 43.1467 132.884 43.328V46.112H132.724C132.458 45.2373 131.988 44.5173 131.316 43.952C130.655 43.376 129.887 43.088 129.012 43.088C128.319 43.088 127.716 43.2747 127.204 43.648C126.692 44.0107 126.298 44.5333 126.02 45.216C125.754 45.888 125.62 46.6773 125.62 47.584C125.62 48.5653 125.802 49.4507 126.164 50.24C126.527 51.0293 127.028 51.6533 127.668 52.112C128.319 52.56 129.055 52.784 129.876 52.784C130.676 52.784 131.359 52.576 131.924 52.16C132.49 51.744 132.943 51.1627 133.284 50.416H133.444C133.316 51.1307 133.06 51.776 132.676 52.352C132.292 52.9173 131.791 53.3653 131.172 53.696C130.554 54.0267 129.855 54.192 129.076 54.192ZM139.782 54.192C138.726 54.192 137.792 53.952 136.982 53.472C136.182 52.992 135.558 52.3147 135.11 51.44C134.672 50.5547 134.454 49.5413 134.454 48.4C134.454 47.2587 134.672 46.2507 135.11 45.376C135.558 44.4907 136.182 43.808 136.982 43.328C137.792 42.848 138.726 42.608 139.782 42.608C140.838 42.608 141.766 42.848 142.566 43.328C143.376 43.808 144 44.4853 144.438 45.36C144.886 46.2347 145.11 47.248 145.11 48.4C145.11 49.552 144.886 50.5653 144.438 51.44C144 52.3147 143.376 52.992 142.566 53.472C141.766 53.952 140.838 54.192 139.782 54.192ZM139.782 53.808C140.443 53.808 141.019 53.584 141.51 53.136C142 52.6773 142.374 52.0373 142.63 51.216C142.896 50.3947 143.03 49.456 143.03 48.4C143.03 47.344 142.896 46.4053 142.63 45.584C142.374 44.7627 142 44.128 141.51 43.68C141.019 43.2213 140.443 42.992 139.782 42.992C139.12 42.992 138.544 43.2213 138.054 43.68C137.574 44.128 137.2 44.7627 136.934 45.584C136.667 46.4053 136.534 47.344 136.534 48.4C136.534 49.456 136.667 50.3947 136.934 51.216C137.2 52.0373 137.574 52.6773 138.054 53.136C138.544 53.584 139.12 53.808 139.782 53.808ZM145.489 53.92C145.851 53.6853 146.171 53.4293 146.449 53.152C146.737 52.8747 147.03 52.5173 147.329 52.08L149.697 48.56L147.297 44.688C147.073 44.3253 146.838 44.0053 146.593 43.728C146.347 43.4507 146.065 43.168 145.745 42.88V42.8H149.297V42.88C149.169 43.072 149.105 43.3013 149.105 43.568C149.105 43.952 149.238 44.3573 149.505 44.784L151.121 47.408L152.945 44.656C153.201 44.2613 153.329 43.9093 153.329 43.6C153.329 43.3333 153.238 43.0933 153.057 42.88V42.8H155.233V42.88C154.87 43.104 154.55 43.3493 154.273 43.616C153.995 43.8827 153.713 44.2347 153.425 44.672L151.345 47.76L154.081 52.112C154.507 52.784 155.019 53.3867 155.617 53.92V54H152.081V53.92C152.209 53.696 152.273 53.456 152.273 53.2C152.273 52.8267 152.139 52.4267 151.873 52L149.921 48.928L147.841 52.064C147.563 52.4693 147.424 52.848 147.424 53.2C147.424 53.4773 147.51 53.7173 147.681 53.92V54H145.489V53.92ZM157.107 53.92C157.267 53.696 157.395 53.4293 157.491 53.12C157.587 52.8 157.635 52.464 157.635 52.112V44.688C157.635 44.336 157.587 44.0053 157.491 43.696C157.395 43.376 157.267 43.104 157.107 42.88V42.8H161.283C162.52 42.8 163.55 43.056 164.371 43.568C165.203 44.0693 165.619 44.9067 165.619 46.08C165.619 46.8373 165.427 47.472 165.043 47.984C164.659 48.4853 164.158 48.8533 163.539 49.088C162.931 49.3227 162.275 49.44 161.571 49.44C161.016 49.44 160.504 49.344 160.035 49.152V48.928C160.387 49.0133 160.755 49.056 161.139 49.056C161.939 49.056 162.552 48.7733 162.979 48.208C163.406 47.6427 163.619 46.9333 163.619 46.08C163.619 45.2693 163.4 44.5813 162.963 44.016C162.526 43.4507 161.907 43.168 161.107 43.168C160.787 43.168 160.51 43.1893 160.275 43.232C160.051 43.264 159.811 43.3227 159.555 43.408V52.112C159.555 52.464 159.603 52.8 159.699 53.12C159.795 53.4293 159.923 53.696 160.083 53.92V54H157.107V53.92ZM164.843 53.92C165.408 53.504 165.846 52.9013 166.155 52.112L169.835 42.768H170.763L174.427 52.096C174.587 52.512 174.747 52.8533 174.907 53.12C175.067 53.3867 175.275 53.6533 175.531 53.92V54H172.123V53.92C172.39 53.6107 172.523 53.248 172.523 52.832C172.523 52.5867 172.47 52.336 172.363 52.08L171.611 50.192H167.371L166.651 52C166.544 52.256 166.491 52.512 166.491 52.768C166.491 53.2373 166.667 53.6213 167.019 53.92V54H164.843V53.92ZM169.499 44.72L167.499 49.824H171.483L169.499 44.72ZM176.888 53.92C177.048 53.696 177.176 53.4293 177.272 53.12C177.368 52.8 177.416 52.464 177.416 52.112V44.688C177.416 44.336 177.368 44.0053 177.272 43.696C177.176 43.376 177.048 43.104 176.888 42.88V42.8H179.864V42.88C179.704 43.104 179.576 43.376 179.48 43.696C179.384 44.0053 179.336 44.336 179.336 44.688V48.048H184.504V44.688C184.504 44.336 184.456 44.0053 184.36 43.696C184.264 43.376 184.136 43.104 183.976 42.88V42.8H186.952V42.88C186.792 43.104 186.664 43.376 186.568 43.696C186.472 44.0053 186.424 44.336 186.424 44.688V52.112C186.424 52.464 186.472 52.8 186.568 53.12C186.664 53.4293 186.792 53.696 186.952 53.92V54H183.976V53.92C184.136 53.696 184.264 53.4293 184.36 53.12C184.456 52.8 184.504 52.464 184.504 52.112V48.416H179.336V52.112C179.336 52.464 179.384 52.8 179.48 53.12C179.576 53.4293 179.704 53.696 179.864 53.92V54H176.888V53.92ZM189.42 53.92C189.58 53.696 189.708 53.4293 189.804 53.12C189.9 52.8 189.948 52.464 189.948 52.112V44.688C189.948 44.336 189.9 44.0053 189.804 43.696C189.708 43.376 189.58 43.104 189.42 42.88V42.8H192.396V42.88C192.236 43.104 192.108 43.376 192.012 43.696C191.916 44.0053 191.868 44.336 191.868 44.688V51.392L197.084 44.688C197.084 44.336 197.036 44.0053 196.94 43.696C196.844 43.376 196.716 43.104 196.556 42.88V42.8H199.532V42.88C199.372 43.104 199.244 43.376 199.148 43.696C199.052 44.0053 199.004 44.336 199.004 44.688V52.112C199.004 52.464 199.052 52.8 199.148 53.12C199.244 53.4293 199.372 53.696 199.532 53.92V54H196.556V53.92C196.716 53.696 196.844 53.4293 196.94 53.12C197.036 52.8 197.084 52.464 197.084 52.112V45.408L191.868 52.112C191.868 52.464 191.916 52.8 192.012 53.12C192.108 53.4293 192.236 53.696 192.396 53.92V54H189.42V53.92ZM204.478 53.92C204.638 53.696 204.766 53.4293 204.862 53.12C204.958 52.8 205.006 52.464 205.006 52.112V43.168H204.206C203.395 43.168 202.739 43.3867 202.238 43.824C201.736 44.2613 201.299 44.9013 200.926 45.744H200.766L201.134 42.8H210.814L211.166 45.744H211.006C210.643 44.9013 210.211 44.2613 209.71 43.824C209.208 43.3867 208.552 43.168 207.742 43.168H206.926V52.112C206.926 52.464 206.974 52.8 207.07 53.12C207.166 53.4293 207.294 53.696 207.454 53.92V54H204.478V53.92ZM212.404 53.92C212.564 53.696 212.692 53.4293 212.788 53.12C212.884 52.8 212.932 52.464 212.932 52.112V44.688C212.932 44.336 212.884 44.0053 212.788 43.696C212.692 43.376 212.564 43.104 212.404 42.88V42.8H219.94L220.308 45.648H220.148C219.785 44.816 219.348 44.1973 218.836 43.792C218.335 43.376 217.615 43.168 216.676 43.168H214.852V48.16H216.628C217.663 48.16 218.319 47.648 218.596 46.624H218.756V50.064H218.596C218.319 49.04 217.663 48.528 216.628 48.528H214.852V53.632H217.044C217.695 53.632 218.239 53.5307 218.676 53.328C219.113 53.1253 219.471 52.848 219.748 52.496C220.025 52.144 220.281 51.696 220.516 51.152H220.676L220.308 54H212.404V53.92ZM224.421 57.152V53.632H224.501C225.141 53.6213 225.701 53.1787 226.181 52.304C226.661 51.4293 227.029 50.3947 227.285 49.2C227.541 47.9947 227.669 46.9547 227.669 46.08C227.669 44.576 227.253 43.5093 226.421 42.88V42.8H234.069V42.88C233.909 43.104 233.781 43.376 233.685 43.696C233.589 44.0053 233.541 44.336 233.541 44.688V53.632H234.901V57.152H234.661C234.544 56.2453 234.224 55.4933 233.701 54.896C233.189 54.2987 232.496 54 231.621 54H227.701C226.826 54 226.128 54.2987 225.605 54.896C225.093 55.4933 224.778 56.2453 224.661 57.152H224.421ZM231.621 53.632V43.168H228.197C228.208 43.3707 228.213 43.744 228.213 44.288C228.213 46.5493 228.01 48.4 227.605 49.84C227.2 51.28 226.656 52.544 225.973 53.632H231.621ZM235.374 53.92C235.94 53.504 236.377 52.9013 236.686 52.112L240.366 42.768H241.294L244.958 52.096C245.118 52.512 245.278 52.8533 245.438 53.12C245.598 53.3867 245.806 53.6533 246.062 53.92V54H242.654V53.92C242.921 53.6107 243.054 53.248 243.054 52.832C243.054 52.5867 243.001 52.336 242.894 52.08L242.142 50.192H237.902L237.182 52C237.076 52.256 237.022 52.512 237.022 52.768C237.022 53.2373 237.198 53.6213 237.55 53.92V54H235.374V53.92ZM240.03 44.72L238.03 49.824H242.014L240.03 44.72ZM249.103 53.92C249.263 53.696 249.391 53.4293 249.487 53.12C249.583 52.8 249.631 52.464 249.631 52.112V43.168H248.831C248.02 43.168 247.364 43.3867 246.863 43.824C246.361 44.2613 245.924 44.9013 245.551 45.744H245.391L245.759 42.8H255.439L255.791 45.744H255.631C255.268 44.9013 254.836 44.2613 254.335 43.824C253.833 43.3867 253.177 43.168 252.367 43.168H251.551V52.112C251.551 52.464 251.599 52.8 251.695 53.12C251.791 53.4293 251.919 53.696 252.079 53.92V54H249.103V53.92ZM257.397 52.768H258.101C258.624 52.768 259.045 52.7467 259.365 52.704C259.685 52.6507 259.978 52.5387 260.245 52.368C260.522 52.1867 260.768 51.9147 260.981 51.552L257.525 44.72C257.141 43.952 256.688 43.3387 256.165 42.88V42.8H259.605V42.88C259.434 43.1253 259.349 43.3867 259.349 43.664C259.349 43.9627 259.45 44.3307 259.653 44.768L261.973 49.536L264.085 44.848C264.234 44.5387 264.309 44.2293 264.309 43.92C264.309 43.4827 264.154 43.136 263.845 42.88V42.8H266.021V42.88C265.488 43.2427 265.029 43.84 264.645 44.672L261.605 51.216C261.2 52.08 260.821 52.736 260.469 53.184C260.128 53.632 259.722 53.952 259.253 54.144C258.784 54.3467 258.165 54.448 257.397 54.448V52.768Z" fill="#070707"/>
<path d="M228.076 86.192C227.031 86.192 226.108 85.9413 225.308 85.44C224.519 84.9387 223.911 84.256 223.484 83.392C223.058 82.5173 222.844 81.5573 222.844 80.512C222.844 79.3813 223.09 78.368 223.58 77.472C224.071 76.576 224.754 75.8773 225.628 75.376C226.503 74.864 227.495 74.608 228.604 74.608C229.266 74.608 229.89 74.6827 230.476 74.832C231.063 74.9813 231.532 75.1467 231.884 75.328V78.112H231.724C231.458 77.2373 230.988 76.5173 230.316 75.952C229.655 75.376 228.887 75.088 228.012 75.088C227.319 75.088 226.716 75.2747 226.204 75.648C225.692 76.0107 225.298 76.5333 225.02 77.216C224.754 77.888 224.62 78.6773 224.62 79.584C224.62 80.5653 224.802 81.4507 225.164 82.24C225.527 83.0293 226.028 83.6533 226.668 84.112C227.319 84.56 228.055 84.784 228.876 84.784C229.676 84.784 230.359 84.576 230.924 84.16C231.49 83.744 231.943 83.1627 232.284 82.416H232.444C232.316 83.1307 232.06 83.776 231.676 84.352C231.292 84.9173 230.791 85.3653 230.172 85.696C229.554 86.0267 228.855 86.192 228.076 86.192ZM238.782 86.192C237.726 86.192 236.792 85.952 235.982 85.472C235.182 84.992 234.558 84.3147 234.11 83.44C233.672 82.5547 233.454 81.5413 233.454 80.4C233.454 79.2587 233.672 78.2507 234.11 77.376C234.558 76.4907 235.182 75.808 235.982 75.328C236.792 74.848 237.726 74.608 238.782 74.608C239.838 74.608 240.766 74.848 241.566 75.328C242.376 75.808 243 76.4853 243.438 77.36C243.886 78.2347 244.11 79.248 244.11 80.4C244.11 81.552 243.886 82.5653 243.438 83.44C243 84.3147 242.376 84.992 241.566 85.472C240.766 85.952 239.838 86.192 238.782 86.192ZM238.782 85.808C239.443 85.808 240.019 85.584 240.51 85.136C241 84.6773 241.374 84.0373 241.63 83.216C241.896 82.3947 242.03 81.456 242.03 80.4C242.03 79.344 241.896 78.4053 241.63 77.584C241.374 76.7627 241 76.128 240.51 75.68C240.019 75.2213 239.443 74.992 238.782 74.992C238.12 74.992 237.544 75.2213 237.054 75.68C236.574 76.128 236.2 76.7627 235.934 77.584C235.667 78.4053 235.534 79.344 235.534 80.4C235.534 81.456 235.667 82.3947 235.934 83.216C236.2 84.0373 236.574 84.6773 237.054 85.136C237.544 85.584 238.12 85.808 238.782 85.808ZM244.489 85.92C244.851 85.6853 245.171 85.4293 245.449 85.152C245.737 84.8747 246.03 84.5173 246.329 84.08L248.697 80.56L246.297 76.688C246.073 76.3253 245.838 76.0053 245.593 75.728C245.347 75.4507 245.065 75.168 244.745 74.88V74.8H248.297V74.88C248.169 75.072 248.105 75.3013 248.105 75.568C248.105 75.952 248.238 76.3573 248.505 76.784L250.121 79.408L251.945 76.656C252.201 76.2613 252.329 75.9093 252.329 75.6C252.329 75.3333 252.238 75.0933 252.057 74.88V74.8H254.233V74.88C253.87 75.104 253.55 75.3493 253.273 75.616C252.995 75.8827 252.713 76.2347 252.425 76.672L250.345 79.76L253.081 84.112C253.507 84.784 254.019 85.3867 254.617 85.92V86H251.081V85.92C251.209 85.696 251.273 85.456 251.273 85.2C251.273 84.8267 251.139 84.4267 250.873 84L248.921 80.928L246.841 84.064C246.563 84.4693 246.424 84.848 246.424 85.2C246.424 85.4773 246.51 85.7173 246.681 85.92V86H244.489V85.92ZM256.107 85.92C256.267 85.696 256.395 85.4293 256.491 85.12C256.587 84.8 256.635 84.464 256.635 84.112V76.688C256.635 76.336 256.587 76.0053 256.491 75.696C256.395 75.376 256.267 75.104 256.107 74.88V74.8H260.283C261.52 74.8 262.55 75.056 263.371 75.568C264.203 76.0693 264.619 76.9067 264.619 78.08C264.619 78.8373 264.427 79.472 264.043 79.984C263.659 80.4853 263.158 80.8533 262.539 81.088C261.931 81.3227 261.275 81.44 260.571 81.44C260.016 81.44 259.504 81.344 259.035 81.152V80.928C259.387 81.0133 259.755 81.056 260.139 81.056C260.939 81.056 261.552 80.7733 261.979 80.208C262.406 79.6427 262.619 78.9333 262.619 78.08C262.619 77.2693 262.4 76.5813 261.963 76.016C261.526 75.4507 260.907 75.168 260.107 75.168C259.787 75.168 259.51 75.1893 259.275 75.232C259.051 75.264 258.811 75.3227 258.555 75.408V84.112C258.555 84.464 258.603 84.8 258.699 85.12C258.795 85.4293 258.923 85.696 259.083 85.92V86H256.107V85.92ZM263.843 85.92C264.408 85.504 264.846 84.9013 265.155 84.112L268.835 74.768H269.763L273.427 84.096C273.587 84.512 273.747 84.8533 273.907 85.12C274.067 85.3867 274.275 85.6533 274.531 85.92V86H271.123V85.92C271.39 85.6107 271.523 85.248 271.523 84.832C271.523 84.5867 271.47 84.336 271.363 84.08L270.611 82.192H266.371L265.651 84C265.544 84.256 265.491 84.512 265.491 84.768C265.491 85.2373 265.667 85.6213 266.019 85.92V86H263.843V85.92ZM268.499 76.72L266.499 81.824H270.483L268.499 76.72ZM275.888 85.92C276.048 85.696 276.176 85.4293 276.272 85.12C276.368 84.8 276.416 84.464 276.416 84.112V76.688C276.416 76.336 276.368 76.0053 276.272 75.696C276.176 75.376 276.048 75.104 275.888 74.88V74.8H278.864V74.88C278.704 75.104 278.576 75.376 278.48 75.696C278.384 76.0053 278.336 76.336 278.336 76.688V80.048H283.504V76.688C283.504 76.336 283.456 76.0053 283.36 75.696C283.264 75.376 283.136 75.104 282.976 74.88V74.8H285.952V74.88C285.792 75.104 285.664 75.376 285.568 75.696C285.472 76.0053 285.424 76.336 285.424 76.688V84.112C285.424 84.464 285.472 84.8 285.568 85.12C285.664 85.4293 285.792 85.696 285.952 85.92V86H282.976V85.92C283.136 85.696 283.264 85.4293 283.36 85.12C283.456 84.8 283.504 84.464 283.504 84.112V80.416H278.336V84.112C278.336 84.464 278.384 84.8 278.48 85.12C278.576 85.4293 278.704 85.696 278.864 85.92V86H275.888V85.92ZM288.42 85.92C288.58 85.696 288.708 85.4293 288.804 85.12C288.9 84.8 288.948 84.464 288.948 84.112V76.688C288.948 76.336 288.9 76.0053 288.804 75.696C288.708 75.376 288.58 75.104 288.42 74.88V74.8H291.396V74.88C291.236 75.104 291.108 75.376 291.012 75.696C290.916 76.0053 290.868 76.336 290.868 76.688V83.392L296.084 76.688C296.084 76.336 296.036 76.0053 295.94 75.696C295.844 75.376 295.716 75.104 295.556 74.88V74.8H298.532V74.88C298.372 75.104 298.244 75.376 298.148 75.696C298.052 76.0053 298.004 76.336 298.004 76.688V84.112C298.004 84.464 298.052 84.8 298.148 85.12C298.244 85.4293 298.372 85.696 298.532 85.92V86H295.556V85.92C295.716 85.696 295.844 85.4293 295.94 85.12C296.036 84.8 296.084 84.464 296.084 84.112V77.408L290.868 84.112C290.868 84.464 290.916 84.8 291.012 85.12C291.108 85.4293 291.236 85.696 291.396 85.92V86H288.42V85.92ZM303.478 85.92C303.638 85.696 303.766 85.4293 303.862 85.12C303.958 84.8 304.006 84.464 304.006 84.112V75.168H303.206C302.395 75.168 301.739 75.3867 301.238 75.824C300.736 76.2613 300.299 76.9013 299.926 77.744H299.766L300.134 74.8H309.814L310.166 77.744H310.006C309.643 76.9013 309.211 76.2613 308.71 75.824C308.208 75.3867 307.552 75.168 306.742 75.168H305.926V84.112C305.926 84.464 305.974 84.8 306.07 85.12C306.166 85.4293 306.294 85.696 306.454 85.92V86H303.478V85.92ZM311.404 85.92C311.564 85.696 311.692 85.4293 311.788 85.12C311.884 84.8 311.932 84.464 311.932 84.112V76.688C311.932 76.336 311.884 76.0053 311.788 75.696C311.692 75.376 311.564 75.104 311.404 74.88V74.8H318.94L319.308 77.648H319.148C318.785 76.816 318.348 76.1973 317.836 75.792C317.335 75.376 316.615 75.168 315.676 75.168H313.852V80.16H315.628C316.663 80.16 317.319 79.648 317.596 78.624H317.756V82.064H317.596C317.319 81.04 316.663 80.528 315.628 80.528H313.852V85.632H316.044C316.695 85.632 317.239 85.5307 317.676 85.328C318.113 85.1253 318.471 84.848 318.748 84.496C319.025 84.144 319.281 83.696 319.516 83.152H319.676L319.308 86H311.404V85.92ZM323.421 89.152V85.632H323.501C324.141 85.6213 324.701 85.1787 325.181 84.304C325.661 83.4293 326.029 82.3947 326.285 81.2C326.541 79.9947 326.669 78.9547 326.669 78.08C326.669 76.576 326.253 75.5093 325.421 74.88V74.8H333.069V74.88C332.909 75.104 332.781 75.376 332.685 75.696C332.589 76.0053 332.541 76.336 332.541 76.688V85.632H333.901V89.152H333.661C333.544 88.2453 333.224 87.4933 332.701 86.896C332.189 86.2987 331.496 86 330.621 86H326.701C325.826 86 325.128 86.2987 324.605 86.896C324.093 87.4933 323.778 88.2453 323.661 89.152H323.421ZM330.621 85.632V75.168H327.197C327.208 75.3707 327.213 75.744 327.213 76.288C327.213 78.5493 327.01 80.4 326.605 81.84C326.2 83.28 325.656 84.544 324.973 85.632H330.621ZM334.374 85.92C334.94 85.504 335.377 84.9013 335.686 84.112L339.366 74.768H340.294L343.958 84.096C344.118 84.512 344.278 84.8533 344.438 85.12C344.598 85.3867 344.806 85.6533 345.062 85.92V86H341.654V85.92C341.921 85.6107 342.054 85.248 342.054 84.832C342.054 84.5867 342.001 84.336 341.894 84.08L341.142 82.192H336.902L336.182 84C336.076 84.256 336.022 84.512 336.022 84.768C336.022 85.2373 336.198 85.6213 336.55 85.92V86H334.374V85.92ZM339.03 76.72L337.03 81.824H341.014L339.03 76.72ZM348.103 85.92C348.263 85.696 348.391 85.4293 348.487 85.12C348.583 84.8 348.631 84.464 348.631 84.112V75.168H347.831C347.02 75.168 346.364 75.3867 345.863 75.824C345.361 76.2613 344.924 76.9013 344.551 77.744H344.391L344.759 74.8H354.439L354.791 77.744H354.631C354.268 76.9013 353.836 76.2613 353.335 75.824C352.833 75.3867 352.177 75.168 351.367 75.168H350.551V84.112C350.551 84.464 350.599 84.8 350.695 85.12C350.791 85.4293 350.919 85.696 351.079 85.92V86H348.103V85.92ZM356.397 84.768H357.101C357.624 84.768 358.045 84.7467 358.365 84.704C358.685 84.6507 358.978 84.5387 359.245 84.368C359.522 84.1867 359.768 83.9147 359.981 83.552L356.525 76.72C356.141 75.952 355.688 75.3387 355.165 74.88V74.8H358.605V74.88C358.434 75.1253 358.349 75.3867 358.349 75.664C358.349 75.9627 358.45 76.3307 358.653 76.768L360.973 81.536L363.085 76.848C363.234 76.5387 363.309 76.2293 363.309 75.92C363.309 75.4827 363.154 75.136 362.845 74.88V74.8H365.021V74.88C364.488 75.2427 364.029 75.84 363.645 76.672L360.605 83.216C360.2 84.08 359.821 84.736 359.469 85.184C359.128 85.632 358.722 85.952 358.253 86.144C357.784 86.3467 357.165 86.448 356.397 86.448V84.768Z" fill="#070707"/>
<path d="M292.076 54.192C291.031 54.192 290.108 53.9413 289.308 53.44C288.519 52.9387 287.911 52.256 287.484 51.392C287.058 50.5173 286.844 49.5573 286.844 48.512C286.844 47.3813 287.09 46.368 287.58 45.472C288.071 44.576 288.754 43.8773 289.628 43.376C290.503 42.864 291.495 42.608 292.604 42.608C293.266 42.608 293.89 42.6827 294.476 42.832C295.063 42.9813 295.532 43.1467 295.884 43.328V46.112H295.724C295.458 45.2373 294.988 44.5173 294.316 43.952C293.655 43.376 292.887 43.088 292.012 43.088C291.319 43.088 290.716 43.2747 290.204 43.648C289.692 44.0107 289.298 44.5333 289.02 45.216C288.754 45.888 288.62 46.6773 288.62 47.584C288.62 48.5653 288.802 49.4507 289.164 50.24C289.527 51.0293 290.028 51.6533 290.668 52.112C291.319 52.56 292.055 52.784 292.876 52.784C293.676 52.784 294.359 52.576 294.924 52.16C295.49 51.744 295.943 51.1627 296.284 50.416H296.444C296.316 51.1307 296.06 51.776 295.676 52.352C295.292 52.9173 294.791 53.3653 294.172 53.696C293.554 54.0267 292.855 54.192 292.076 54.192ZM302.782 54.192C301.726 54.192 300.792 53.952 299.982 53.472C299.182 52.992 298.558 52.3147 298.11 51.44C297.672 50.5547 297.454 49.5413 297.454 48.4C297.454 47.2587 297.672 46.2507 298.11 45.376C298.558 44.4907 299.182 43.808 299.982 43.328C300.792 42.848 301.726 42.608 302.782 42.608C303.838 42.608 304.766 42.848 305.566 43.328C306.376 43.808 307 44.4853 307.438 45.36C307.886 46.2347 308.11 47.248 308.11 48.4C308.11 49.552 307.886 50.5653 307.438 51.44C307 52.3147 306.376 52.992 305.566 53.472C304.766 53.952 303.838 54.192 302.782 54.192ZM302.782 53.808C303.443 53.808 304.019 53.584 304.51 53.136C305 52.6773 305.374 52.0373 305.63 51.216C305.896 50.3947 306.03 49.456 306.03 48.4C306.03 47.344 305.896 46.4053 305.63 45.584C305.374 44.7627 305 44.128 304.51 43.68C304.019 43.2213 303.443 42.992 302.782 42.992C302.12 42.992 301.544 43.2213 301.054 43.68C300.574 44.128 300.2 44.7627 299.934 45.584C299.667 46.4053 299.534 47.344 299.534 48.4C299.534 49.456 299.667 50.3947 299.934 51.216C300.2 52.0373 300.574 52.6773 301.054 53.136C301.544 53.584 302.12 53.808 302.782 53.808ZM308.489 53.92C308.851 53.6853 309.171 53.4293 309.449 53.152C309.737 52.8747 310.03 52.5173 310.329 52.08L312.697 48.56L310.297 44.688C310.073 44.3253 309.838 44.0053 309.593 43.728C309.347 43.4507 309.065 43.168 308.745 42.88V42.8H312.297V42.88C312.169 43.072 312.105 43.3013 312.105 43.568C312.105 43.952 312.238 44.3573 312.505 44.784L314.121 47.408L315.945 44.656C316.201 44.2613 316.329 43.9093 316.329 43.6C316.329 43.3333 316.238 43.0933 316.057 42.88V42.8H318.233V42.88C317.87 43.104 317.55 43.3493 317.273 43.616C316.995 43.8827 316.713 44.2347 316.425 44.672L314.345 47.76L317.081 52.112C317.507 52.784 318.019 53.3867 318.617 53.92V54H315.081V53.92C315.209 53.696 315.273 53.456 315.273 53.2C315.273 52.8267 315.139 52.4267 314.873 52L312.921 48.928L310.841 52.064C310.563 52.4693 310.424 52.848 310.424 53.2C310.424 53.4773 310.51 53.7173 310.681 53.92V54H308.489V53.92ZM320.107 53.92C320.267 53.696 320.395 53.4293 320.491 53.12C320.587 52.8 320.635 52.464 320.635 52.112V44.688C320.635 44.336 320.587 44.0053 320.491 43.696C320.395 43.376 320.267 43.104 320.107 42.88V42.8H324.283C325.52 42.8 326.55 43.056 327.371 43.568C328.203 44.0693 328.619 44.9067 328.619 46.08C328.619 46.8373 328.427 47.472 328.043 47.984C327.659 48.4853 327.158 48.8533 326.539 49.088C325.931 49.3227 325.275 49.44 324.571 49.44C324.016 49.44 323.504 49.344 323.035 49.152V48.928C323.387 49.0133 323.755 49.056 324.139 49.056C324.939 49.056 325.552 48.7733 325.979 48.208C326.406 47.6427 326.619 46.9333 326.619 46.08C326.619 45.2693 326.4 44.5813 325.963 44.016C325.526 43.4507 324.907 43.168 324.107 43.168C323.787 43.168 323.51 43.1893 323.275 43.232C323.051 43.264 322.811 43.3227 322.555 43.408V52.112C322.555 52.464 322.603 52.8 322.699 53.12C322.795 53.4293 322.923 53.696 323.083 53.92V54H320.107V53.92ZM327.843 53.92C328.408 53.504 328.846 52.9013 329.155 52.112L332.835 42.768H333.763L337.427 52.096C337.587 52.512 337.747 52.8533 337.907 53.12C338.067 53.3867 338.275 53.6533 338.531 53.92V54H335.123V53.92C335.39 53.6107 335.523 53.248 335.523 52.832C335.523 52.5867 335.47 52.336 335.363 52.08L334.611 50.192H330.371L329.651 52C329.544 52.256 329.491 52.512 329.491 52.768C329.491 53.2373 329.667 53.6213 330.019 53.92V54H327.843V53.92ZM332.499 44.72L330.499 49.824H334.483L332.499 44.72ZM339.888 53.92C340.048 53.696 340.176 53.4293 340.272 53.12C340.368 52.8 340.416 52.464 340.416 52.112V44.688C340.416 44.336 340.368 44.0053 340.272 43.696C340.176 43.376 340.048 43.104 339.888 42.88V42.8H342.864V42.88C342.704 43.104 342.576 43.376 342.48 43.696C342.384 44.0053 342.336 44.336 342.336 44.688V48.048H347.504V44.688C347.504 44.336 347.456 44.0053 347.36 43.696C347.264 43.376 347.136 43.104 346.976 42.88V42.8H349.952V42.88C349.792 43.104 349.664 43.376 349.568 43.696C349.472 44.0053 349.424 44.336 349.424 44.688V52.112C349.424 52.464 349.472 52.8 349.568 53.12C349.664 53.4293 349.792 53.696 349.952 53.92V54H346.976V53.92C347.136 53.696 347.264 53.4293 347.36 53.12C347.456 52.8 347.504 52.464 347.504 52.112V48.416H342.336V52.112C342.336 52.464 342.384 52.8 342.48 53.12C342.576 53.4293 342.704 53.696 342.864 53.92V54H339.888V53.92ZM352.42 53.92C352.58 53.696 352.708 53.4293 352.804 53.12C352.9 52.8 352.948 52.464 352.948 52.112V44.688C352.948 44.336 352.9 44.0053 352.804 43.696C352.708 43.376 352.58 43.104 352.42 42.88V42.8H355.396V42.88C355.236 43.104 355.108 43.376 355.012 43.696C354.916 44.0053 354.868 44.336 354.868 44.688V51.392L360.084 44.688C360.084 44.336 360.036 44.0053 359.94 43.696C359.844 43.376 359.716 43.104 359.556 42.88V42.8H362.532V42.88C362.372 43.104 362.244 43.376 362.148 43.696C362.052 44.0053 362.004 44.336 362.004 44.688V52.112C362.004 52.464 362.052 52.8 362.148 53.12C362.244 53.4293 362.372 53.696 362.532 53.92V54H359.556V53.92C359.716 53.696 359.844 53.4293 359.94 53.12C360.036 52.8 360.084 52.464 360.084 52.112V45.408L354.868 52.112C354.868 52.464 354.916 52.8 355.012 53.12C355.108 53.4293 355.236 53.696 355.396 53.92V54H352.42V53.92ZM367.478 53.92C367.638 53.696 367.766 53.4293 367.862 53.12C367.958 52.8 368.006 52.464 368.006 52.112V43.168H367.206C366.395 43.168 365.739 43.3867 365.238 43.824C364.736 44.2613 364.299 44.9013 363.926 45.744H363.766L364.134 42.8H373.814L374.166 45.744H374.006C373.643 44.9013 373.211 44.2613 372.71 43.824C372.208 43.3867 371.552 43.168 370.742 43.168H369.926V52.112C369.926 52.464 369.974 52.8 370.07 53.12C370.166 53.4293 370.294 53.696 370.454 53.92V54H367.478V53.92ZM375.404 53.92C375.564 53.696 375.692 53.4293 375.788 53.12C375.884 52.8 375.932 52.464 375.932 52.112V44.688C375.932 44.336 375.884 44.0053 375.788 43.696C375.692 43.376 375.564 43.104 375.404 42.88V42.8H382.94L383.308 45.648H383.148C382.785 44.816 382.348 44.1973 381.836 43.792C381.335 43.376 380.615 43.168 379.676 43.168H377.852V48.16H379.628C380.663 48.16 381.319 47.648 381.596 46.624H381.756V50.064H381.596C381.319 49.04 380.663 48.528 379.628 48.528H377.852V53.632H380.044C380.695 53.632 381.239 53.5307 381.676 53.328C382.113 53.1253 382.471 52.848 382.748 52.496C383.025 52.144 383.281 51.696 383.516 51.152H383.676L383.308 54H375.404V53.92ZM387.421 57.152V53.632H387.501C388.141 53.6213 388.701 53.1787 389.181 52.304C389.661 51.4293 390.029 50.3947 390.285 49.2C390.541 47.9947 390.669 46.9547 390.669 46.08C390.669 44.576 390.253 43.5093 389.421 42.88V42.8H397.069V42.88C396.909 43.104 396.781 43.376 396.685 43.696C396.589 44.0053 396.541 44.336 396.541 44.688V53.632H397.901V57.152H397.661C397.544 56.2453 397.224 55.4933 396.701 54.896C396.189 54.2987 395.496 54 394.621 54H390.701C389.826 54 389.128 54.2987 388.605 54.896C388.093 55.4933 387.778 56.2453 387.661 57.152H387.421ZM394.621 53.632V43.168H391.197C391.208 43.3707 391.213 43.744 391.213 44.288C391.213 46.5493 391.01 48.4 390.605 49.84C390.2 51.28 389.656 52.544 388.973 53.632H394.621ZM398.374 53.92C398.94 53.504 399.377 52.9013 399.686 52.112L403.366 42.768H404.294L407.958 52.096C408.118 52.512 408.278 52.8533 408.438 53.12C408.598 53.3867 408.806 53.6533 409.062 53.92V54H405.654V53.92C405.921 53.6107 406.054 53.248 406.054 52.832C406.054 52.5867 406.001 52.336 405.894 52.08L405.142 50.192H400.902L400.182 52C400.076 52.256 400.022 52.512 400.022 52.768C400.022 53.2373 400.198 53.6213 400.55 53.92V54H398.374V53.92ZM403.03 44.72L401.03 49.824H405.014L403.03 44.72ZM412.103 53.92C412.263 53.696 412.391 53.4293 412.487 53.12C412.583 52.8 412.631 52.464 412.631 52.112V43.168H411.831C411.02 43.168 410.364 43.3867 409.863 43.824C409.361 44.2613 408.924 44.9013 408.551 45.744H408.391L408.759 42.8H418.439L418.791 45.744H418.631C418.268 44.9013 417.836 44.2613 417.335 43.824C416.833 43.3867 416.177 43.168 415.367 43.168H414.551V52.112C414.551 52.464 414.599 52.8 414.695 53.12C414.791 53.4293 414.919 53.696 415.079 53.92V54H412.103V53.92ZM420.397 52.768H421.101C421.624 52.768 422.045 52.7467 422.365 52.704C422.685 52.6507 422.978 52.5387 423.245 52.368C423.522 52.1867 423.768 51.9147 423.981 51.552L420.525 44.72C420.141 43.952 419.688 43.3387 419.165 42.88V42.8H422.605V42.88C422.434 43.1253 422.349 43.3867 422.349 43.664C422.349 43.9627 422.45 44.3307 422.653 44.768L424.973 49.536L427.085 44.848C427.234 44.5387 427.309 44.2293 427.309 43.92C427.309 43.4827 427.154 43.136 426.845 42.88V42.8H429.021V42.88C428.488 43.2427 428.029 43.84 427.645 44.672L424.605 51.216C424.2 52.08 423.821 52.736 423.469 53.184C423.128 53.632 422.722 53.952 422.253 54.144C421.784 54.3467 421.165 54.448 420.397 54.448V52.768Z" fill="#070707"/>
<path d="M391.076 86.192C390.031 86.192 389.108 85.9413 388.308 85.44C387.519 84.9387 386.911 84.256 386.484 83.392C386.058 82.5173 385.844 81.5573 385.844 80.512C385.844 79.3813 386.09 78.368 386.58 77.472C387.071 76.576 387.754 75.8773 388.628 75.376C389.503 74.864 390.495 74.608 391.604 74.608C392.266 74.608 392.89 74.6827 393.476 74.832C394.063 74.9813 394.532 75.1467 394.884 75.328V78.112H394.724C394.458 77.2373 393.988 76.5173 393.316 75.952C392.655 75.376 391.887 75.088 391.012 75.088C390.319 75.088 389.716 75.2747 389.204 75.648C388.692 76.0107 388.298 76.5333 388.02 77.216C387.754 77.888 387.62 78.6773 387.62 79.584C387.62 80.5653 387.802 81.4507 388.164 82.24C388.527 83.0293 389.028 83.6533 389.668 84.112C390.319 84.56 391.055 84.784 391.876 84.784C392.676 84.784 393.359 84.576 393.924 84.16C394.49 83.744 394.943 83.1627 395.284 82.416H395.444C395.316 83.1307 395.06 83.776 394.676 84.352C394.292 84.9173 393.791 85.3653 393.172 85.696C392.554 86.0267 391.855 86.192 391.076 86.192ZM401.782 86.192C400.726 86.192 399.792 85.952 398.982 85.472C398.182 84.992 397.558 84.3147 397.11 83.44C396.672 82.5547 396.454 81.5413 396.454 80.4C396.454 79.2587 396.672 78.2507 397.11 77.376C397.558 76.4907 398.182 75.808 398.982 75.328C399.792 74.848 400.726 74.608 401.782 74.608C402.838 74.608 403.766 74.848 404.566 75.328C405.376 75.808 406 76.4853 406.438 77.36C406.886 78.2347 407.11 79.248 407.11 80.4C407.11 81.552 406.886 82.5653 406.438 83.44C406 84.3147 405.376 84.992 404.566 85.472C403.766 85.952 402.838 86.192 401.782 86.192ZM401.782 85.808C402.443 85.808 403.019 85.584 403.51 85.136C404 84.6773 404.374 84.0373 404.63 83.216C404.896 82.3947 405.03 81.456 405.03 80.4C405.03 79.344 404.896 78.4053 404.63 77.584C404.374 76.7627 404 76.128 403.51 75.68C403.019 75.2213 402.443 74.992 401.782 74.992C401.12 74.992 400.544 75.2213 400.054 75.68C399.574 76.128 399.2 76.7627 398.934 77.584C398.667 78.4053 398.534 79.344 398.534 80.4C398.534 81.456 398.667 82.3947 398.934 83.216C399.2 84.0373 399.574 84.6773 400.054 85.136C400.544 85.584 401.12 85.808 401.782 85.808ZM407.489 85.92C407.851 85.6853 408.171 85.4293 408.449 85.152C408.737 84.8747 409.03 84.5173 409.329 84.08L411.697 80.56L409.297 76.688C409.073 76.3253 408.838 76.0053 408.593 75.728C408.347 75.4507 408.065 75.168 407.745 74.88V74.8H411.297V74.88C411.169 75.072 411.105 75.3013 411.105 75.568C411.105 75.952 411.238 76.3573 411.505 76.784L413.121 79.408L414.945 76.656C415.201 76.2613 415.329 75.9093 415.329 75.6C415.329 75.3333 415.238 75.0933 415.057 74.88V74.8H417.233V74.88C416.87 75.104 416.55 75.3493 416.273 75.616C415.995 75.8827 415.713 76.2347 415.425 76.672L413.345 79.76L416.081 84.112C416.507 84.784 417.019 85.3867 417.617 85.92V86H414.081V85.92C414.209 85.696 414.273 85.456 414.273 85.2C414.273 84.8267 414.139 84.4267 413.873 84L411.921 80.928L409.841 84.064C409.563 84.4693 409.424 84.848 409.424 85.2C409.424 85.4773 409.51 85.7173 409.681 85.92V86H407.489V85.92ZM419.107 85.92C419.267 85.696 419.395 85.4293 419.491 85.12C419.587 84.8 419.635 84.464 419.635 84.112V76.688C419.635 76.336 419.587 76.0053 419.491 75.696C419.395 75.376 419.267 75.104 419.107 74.88V74.8H423.283C424.52 74.8 425.55 75.056 426.371 75.568C427.203 76.0693 427.619 76.9067 427.619 78.08C427.619 78.8373 427.427 79.472 427.043 79.984C426.659 80.4853 426.158 80.8533 425.539 81.088C424.931 81.3227 424.275 81.44 423.571 81.44C423.016 81.44 422.504 81.344 422.035 81.152V80.928C422.387 81.0133 422.755 81.056 423.139 81.056C423.939 81.056 424.552 80.7733 424.979 80.208C425.406 79.6427 425.619 78.9333 425.619 78.08C425.619 77.2693 425.4 76.5813 424.963 76.016C424.526 75.4507 423.907 75.168 423.107 75.168C422.787 75.168 422.51 75.1893 422.275 75.232C422.051 75.264 421.811 75.3227 421.555 75.408V84.112C421.555 84.464 421.603 84.8 421.699 85.12C421.795 85.4293 421.923 85.696 422.083 85.92V86H419.107V85.92ZM426.843 85.92C427.408 85.504 427.846 84.9013 428.155 84.112L431.835 74.768H432.763L436.427 84.096C436.587 84.512 436.747 84.8533 436.907 85.12C437.067 85.3867 437.275 85.6533 437.531 85.92V86H434.123V85.92C434.39 85.6107 434.523 85.248 434.523 84.832C434.523 84.5867 434.47 84.336 434.363 84.08L433.611 82.192H429.371L428.651 84C428.544 84.256 428.491 84.512 428.491 84.768C428.491 85.2373 428.667 85.6213 429.019 85.92V86H426.843V85.92ZM431.499 76.72L429.499 81.824H433.483L431.499 76.72ZM438.888 85.92C439.048 85.696 439.176 85.4293 439.272 85.12C439.368 84.8 439.416 84.464 439.416 84.112V76.688C439.416 76.336 439.368 76.0053 439.272 75.696C439.176 75.376 439.048 75.104 438.888 74.88V74.8H441.864V74.88C441.704 75.104 441.576 75.376 441.48 75.696C441.384 76.0053 441.336 76.336 441.336 76.688V80.048H446.504V76.688C446.504 76.336 446.456 76.0053 446.36 75.696C446.264 75.376 446.136 75.104 445.976 74.88V74.8H448.952V74.88C448.792 75.104 448.664 75.376 448.568 75.696C448.472 76.0053 448.424 76.336 448.424 76.688V84.112C448.424 84.464 448.472 84.8 448.568 85.12C448.664 85.4293 448.792 85.696 448.952 85.92V86H445.976V85.92C446.136 85.696 446.264 85.4293 446.36 85.12C446.456 84.8 446.504 84.464 446.504 84.112V80.416H441.336V84.112C441.336 84.464 441.384 84.8 441.48 85.12C441.576 85.4293 441.704 85.696 441.864 85.92V86H438.888V85.92ZM451.42 85.92C451.58 85.696 451.708 85.4293 451.804 85.12C451.9 84.8 451.948 84.464 451.948 84.112V76.688C451.948 76.336 451.9 76.0053 451.804 75.696C451.708 75.376 451.58 75.104 451.42 74.88V74.8H454.396V74.88C454.236 75.104 454.108 75.376 454.012 75.696C453.916 76.0053 453.868 76.336 453.868 76.688V83.392L459.084 76.688C459.084 76.336 459.036 76.0053 458.94 75.696C458.844 75.376 458.716 75.104 458.556 74.88V74.8H461.532V74.88C461.372 75.104 461.244 75.376 461.148 75.696C461.052 76.0053 461.004 76.336 461.004 76.688V84.112C461.004 84.464 461.052 84.8 461.148 85.12C461.244 85.4293 461.372 85.696 461.532 85.92V86H458.556V85.92C458.716 85.696 458.844 85.4293 458.94 85.12C459.036 84.8 459.084 84.464 459.084 84.112V77.408L453.868 84.112C453.868 84.464 453.916 84.8 454.012 85.12C454.108 85.4293 454.236 85.696 454.396 85.92V86H451.42V85.92ZM466.478 85.92C466.638 85.696 466.766 85.4293 466.862 85.12C466.958 84.8 467.006 84.464 467.006 84.112V75.168H466.206C465.395 75.168 464.739 75.3867 464.238 75.824C463.736 76.2613 463.299 76.9013 462.926 77.744H462.766L463.134 74.8H472.814L473.166 77.744H473.006C472.643 76.9013 472.211 76.2613 471.71 75.824C471.208 75.3867 470.552 75.168 469.742 75.168H468.926V84.112C468.926 84.464 468.974 84.8 469.07 85.12C469.166 85.4293 469.294 85.696 469.454 85.92V86H466.478V85.92ZM474.404 85.92C474.564 85.696 474.692 85.4293 474.788 85.12C474.884 84.8 474.932 84.464 474.932 84.112V76.688C474.932 76.336 474.884 76.0053 474.788 75.696C474.692 75.376 474.564 75.104 474.404 74.88V74.8H481.94L482.308 77.648H482.148C481.785 76.816 481.348 76.1973 480.836 75.792C480.335 75.376 479.615 75.168 478.676 75.168H476.852V80.16H478.628C479.663 80.16 480.319 79.648 480.596 78.624H480.756V82.064H480.596C480.319 81.04 479.663 80.528 478.628 80.528H476.852V85.632H479.044C479.695 85.632 480.239 85.5307 480.676 85.328C481.113 85.1253 481.471 84.848 481.748 84.496C482.025 84.144 482.281 83.696 482.516 83.152H482.676L482.308 86H474.404V85.92ZM486.421 89.152V85.632H486.501C487.141 85.6213 487.701 85.1787 488.181 84.304C488.661 83.4293 489.029 82.3947 489.285 81.2C489.541 79.9947 489.669 78.9547 489.669 78.08C489.669 76.576 489.253 75.5093 488.421 74.88V74.8H496.069V74.88C495.909 75.104 495.781 75.376 495.685 75.696C495.589 76.0053 495.541 76.336 495.541 76.688V85.632H496.901V89.152H496.661C496.544 88.2453 496.224 87.4933 495.701 86.896C495.189 86.2987 494.496 86 493.621 86H489.701C488.826 86 488.128 86.2987 487.605 86.896C487.093 87.4933 486.778 88.2453 486.661 89.152H486.421ZM493.621 85.632V75.168H490.197C490.208 75.3707 490.213 75.744 490.213 76.288C490.213 78.5493 490.01 80.4 489.605 81.84C489.2 83.28 488.656 84.544 487.973 85.632H493.621ZM497.374 85.92C497.94 85.504 498.377 84.9013 498.686 84.112L502.366 74.768H503.294L506.958 84.096C507.118 84.512 507.278 84.8533 507.438 85.12C507.598 85.3867 507.806 85.6533 508.062 85.92V86H504.654V85.92C504.921 85.6107 505.054 85.248 505.054 84.832C505.054 84.5867 505.001 84.336 504.894 84.08L504.142 82.192H499.902L499.182 84C499.076 84.256 499.022 84.512 499.022 84.768C499.022 85.2373 499.198 85.6213 499.55 85.92V86H497.374V85.92ZM502.03 76.72L500.03 81.824H504.014L502.03 76.72ZM511.103 85.92C511.263 85.696 511.391 85.4293 511.487 85.12C511.583 84.8 511.631 84.464 511.631 84.112V75.168H510.831C510.02 75.168 509.364 75.3867 508.863 75.824C508.361 76.2613 507.924 76.9013 507.551 77.744H507.391L507.759 74.8H517.439L517.791 77.744H517.631C517.268 76.9013 516.836 76.2613 516.335 75.824C515.833 75.3867 515.177 75.168 514.367 75.168H513.551V84.112C513.551 84.464 513.599 84.8 513.695 85.12C513.791 85.4293 513.919 85.696 514.079 85.92V86H511.103V85.92ZM519.397 84.768H520.101C520.624 84.768 521.045 84.7467 521.365 84.704C521.685 84.6507 521.978 84.5387 522.245 84.368C522.522 84.1867 522.768 83.9147 522.981 83.552L519.525 76.72C519.141 75.952 518.688 75.3387 518.165 74.88V74.8H521.605V74.88C521.434 75.1253 521.349 75.3867 521.349 75.664C521.349 75.9627 521.45 76.3307 521.653 76.768L523.973 81.536L526.085 76.848C526.234 76.5387 526.309 76.2293 526.309 75.92C526.309 75.4827 526.154 75.136 525.845 74.88V74.8H528.021V74.88C527.488 75.2427 527.029 75.84 526.645 76.672L523.605 83.216C523.2 84.08 522.821 84.736 522.469 85.184C522.128 85.632 521.722 85.952 521.253 86.144C520.784 86.3467 520.165 86.448 519.397 86.448V84.768Z" fill="#070707"/>
</svg>
